<?xml version="1.0" standalone="no"?>
<!DOCTYPE svg PUBLIC "-//W3C//DTD SVG 20010904//EN"
 "http://www.w3.org/TR/2001/REC-SVG-20010904/DTD/svg10.dtd">
<svg version="1.0" xmlns="http://www.w3.org/2000/svg"
 width="1024.000000pt" height="1024.000000pt" viewBox="0 0 1024.000000 1024.000000"
 preserveAspectRatio="xMidYMid meet">

<g transform="translate(0.000000,1024.000000) scale(0.100000,-0.100000)"
fill="#000000" stroke="none">
<path d="M3760 9004 c-513 -35 -852 -130 -1225 -342 -210 -120 -463 -351 -610
-558 -82 -116 -187 -320 -229 -444 -50 -151 -61 -231 -60 -435 0 -178 2 -196
28 -280 31 -101 72 -200 91 -215 10 -8 11 8 7 78 -8 151 29 378 88 530 53 137
160 311 267 433 166 190 418 353 683 444 110 37 281 85 306 85 3 0 -19 -28
-50 -61 -115 -127 -241 -344 -295 -504 -49 -149 -64 -250 -58 -410 5 -147 19
-221 62 -310 l23 -50 1 61 c1 79 26 221 53 304 31 97 124 273 190 361 207 275
503 456 842 514 129 22 157 19 290 -26 216 -73 378 -159 561 -298 100 -76 265
-231 265 -249 0 -5 -21 -13 -47 -18 -28 -4 -39 -9 -27 -11 21 -4 20 -5 -5 -32
-22 -23 -33 -27 -60 -23 -31 4 -32 3 -22 -16 8 -15 7 -23 -2 -31 -10 -7 -26
-4 -62 14 -55 28 -64 27 -41 -7 9 -12 16 -35 16 -49 0 -26 -1 -27 -27 -14 -38
18 -113 28 -113 15 0 -5 4 -10 10 -10 10 0 50 -40 50 -51 0 -3 -30 -4 -67 -2
-48 4 -78 1 -103 -10 -22 -10 -28 -16 -17 -16 25 -1 87 -31 87 -42 0 -5 -24
-9 -52 -10 -61 0 -185 -36 -133 -38 17 -1 55 -13 85 -27 l55 -27 -85 -13 c-81
-12 -194 -46 -215 -65 -5 -5 6 -9 28 -9 36 0 124 -30 157 -53 14 -10 -11 -12
-124 -12 -129 0 -148 -2 -223 -28 -46 -16 -83 -30 -83 -32 0 -1 20 0 44 2 41
5 251 -25 242 -34 -2 -3 -37 -9 -77 -14 -126 -18 -254 -56 -351 -104 -51 -26
-97 -50 -101 -54 -4 -5 25 -2 65 5 67 12 289 34 296 29 2 -2 -26 -19 -63 -39
-103 -58 -205 -147 -334 -289 -65 -73 -139 -151 -163 -174 -70 -64 -179 -132
-269 -168 -101 -41 -92 -45 117 -47 l159 -2 -225 -222 c-318 -314 -381 -367
-535 -452 l-60 -33 55 6 c61 7 336 60 390 74 32 9 27 3 -60 -81 -96 -91 -297
-265 -380 -328 -25 -19 -94 -77 -155 -130 -60 -52 -144 -122 -185 -154 -97
-76 -101 -80 -70 -72 104 28 310 80 379 96 l84 18 -54 -46 c-357 -307 -544
-620 -604 -1012 -8 -52 -15 -115 -14 -140 0 -43 1 -42 25 38 29 98 49 140 119
247 57 87 183 229 147 165 -133 -232 -177 -400 -169 -640 5 -171 33 -296 96
-425 43 -89 137 -234 126 -195 -4 14 -10 84 -12 155 -4 117 -2 143 22 243 15
61 30 114 33 116 4 2 8 -30 10 -72 9 -269 160 -586 393 -824 l90 -93 -31 63
c-72 146 -120 346 -120 491 l0 76 31 -90 c73 -217 231 -449 446 -656 111 -107
195 -176 286 -237 106 -71 108 -71 35 -4 -103 96 -239 272 -333 432 -5 8 29
-20 76 -64 46 -43 140 -124 208 -180 68 -55 205 -168 305 -250 232 -189 371
-306 516 -431 145 -126 163 -140 120 -90 -32 36 -213 267 -250 318 -29 40 196
-148 314 -263 154 -150 291 -309 379 -440 38 -58 72 -107 74 -110 7 -8 172
172 247 270 204 269 333 555 387 860 15 83 19 380 6 474 -7 57 -7 59 10 44 29
-25 207 -108 232 -108 2 0 -18 21 -45 47 -125 120 -244 329 -332 583 -73 210
-73 203 -7 132 51 -56 164 -141 210 -158 10 -4 -3 14 -29 39 -134 134 -204
337 -194 562 4 89 9 109 36 166 18 35 30 52 27 38 -2 -14 -7 -59 -11 -100 -4
-54 -3 -70 5 -59 6 8 11 23 11 33 0 10 14 53 31 97 32 85 104 177 160 206 33
17 37 9 10 -20 -10 -12 -27 -34 -37 -50 -18 -28 -16 -28 42 12 60 41 155 82
223 97 l33 7 -40 -53 c-85 -114 -112 -197 -119 -355 -3 -71 -2 -128 4 -139 8
-13 11 0 16 53 4 46 16 92 36 136 16 36 31 66 34 66 2 0 -3 -35 -11 -78 -16
-92 -11 -256 12 -352 30 -124 88 -254 161 -356 54 -76 77 -94 42 -33 -28 48
-77 225 -76 274 0 24 3 18 15 -25 18 -66 85 -225 126 -300 53 -95 163 -243
229 -306 77 -73 169 -136 253 -174 94 -42 117 -46 61 -10 -27 18 -66 47 -86
64 -36 31 -166 181 -139 160 174 -133 276 -187 414 -215 139 -29 149 -26 78
21 -137 92 -279 295 -345 492 -24 71 -63 285 -54 294 2 3 14 -26 26 -63 31
-95 82 -182 148 -253 74 -80 105 -97 59 -32 -108 150 -164 381 -132 547 40
205 178 363 360 411 95 26 185 18 351 -29 142 -40 157 -42 280 -42 143 0 189
11 300 69 119 62 243 218 253 316 4 43 9 53 37 70 50 31 65 73 65 182 0 76 -5
104 -25 153 -30 73 -32 128 -4 197 25 63 20 98 -19 148 -15 19 -33 54 -40 77
-25 85 -41 102 -816 887 -82 83 -155 160 -162 171 -7 11 -42 106 -78 210 -35
105 -82 240 -105 302 -22 61 -43 133 -46 160 l-7 48 62 45 c81 58 191 176 252
270 92 140 220 429 253 572 37 164 28 277 -27 323 -57 48 -108 30 -239 -86
-136 -122 -629 -509 -714 -561 -7 -5 -23 21 -44 73 -18 45 -46 96 -62 114 -16
18 -29 40 -29 49 0 24 -45 110 -78 148 -16 18 -35 49 -42 68 -18 46 -70 127
-106 165 -15 17 -49 62 -75 100 -26 39 -67 89 -91 111 -23 23 -70 73 -104 110
-33 38 -81 83 -105 99 -24 17 -55 43 -69 59 -38 45 -214 172 -299 218 -42 22
-107 57 -146 78 -38 22 -92 44 -118 49 -26 6 -60 20 -75 30 -63 45 -421 136
-632 161 -92 11 -750 21 -860 14z m20 -80 c0 -3 -15 -23 -33 -45 -19 -21 -53
-75 -77 -119 -29 -55 -46 -77 -52 -68 -6 10 -8 10 -8 1 0 -7 -4 -13 -10 -13
-5 0 -7 8 -3 18 4 11 -5 7 -25 -12 -37 -35 -45 -32 -33 12 5 18 8 32 5 32 -5
0 -37 -73 -36 -82 1 -5 -3 -8 -8 -8 -5 0 -10 -8 -11 -17 0 -10 -3 -13 -5 -7
-3 6 9 43 25 82 16 40 27 72 25 72 -3 0 -25 -41 -49 -92 -47 -95 -52 -96 -35
-8 19 100 77 200 135 233 11 7 54 14 95 18 41 3 81 6 88 7 6 1 12 -1 12 -4z
m225 0 c13 -5 8 -13 -24 -41 -22 -18 -63 -68 -92 -111 -57 -86 -65 -96 -56
-67 6 17 4 17 -13 -4 -16 -18 -20 -20 -20 -6 0 9 5 25 10 36 6 10 8 19 6 19
-3 0 -13 -14 -21 -30 -9 -17 -20 -28 -26 -24 -5 3 -17 0 -26 -8 -10 -7 -14 -8
-10 -1 4 6 2 13 -5 15 -8 3 -1 24 20 63 18 32 30 60 28 62 -2 2 -19 -26 -37
-62 -19 -36 -38 -65 -43 -65 -4 0 -6 6 -3 13 18 43 16 47 -7 12 -36 -56 -32
-37 8 43 36 70 93 134 136 151 28 11 150 14 175 5z m216 -20 c116 -22 118 -24
61 -62 -50 -32 -155 -156 -203 -238 -37 -63 -47 -30 -13 39 15 29 20 46 12 39
-8 -6 -17 -9 -20 -6 -3 3 -5 -3 -4 -13 0 -10 -5 -17 -11 -15 -7 1 -12 -1 -11
-5 0 -5 -2 -17 -6 -28 -28 -74 -35 -89 -35 -78 -1 16 26 120 35 136 4 6 -4 1
-17 -13 -13 -13 -23 -28 -21 -32 1 -5 -3 -8 -8 -8 -6 0 -10 -6 -9 -12 2 -12
-3 -26 -24 -78 -4 -8 -4 1 -1 20 4 19 9 37 13 40 3 3 7 12 8 20 1 8 5 26 9 40
7 22 6 24 -9 11 -13 -10 -20 -11 -31 -2 -11 9 -17 8 -28 -8 -8 -12 -17 -18
-20 -15 -3 3 -9 0 -14 -7 -4 -8 -3 -10 4 -5 16 10 15 5 -8 -45 -20 -44 -20
-44 -20 -12 0 43 32 143 64 196 47 82 139 149 212 156 7 1 49 -6 95 -15z
m-713 -21 c-40 -44 -82 -113 -112 -186 -34 -79 -46 -84 -16 -6 28 75 25 75
-15 -1 -19 -36 -34 -63 -34 -60 -1 3 6 30 14 60 8 30 13 56 11 57 -4 4 -30
-64 -45 -117 l-10 -35 1 35 c2 73 -3 77 -28 25 -35 -73 -31 -37 11 90 3 11 -5
0 -19 -25 -14 -25 -25 -53 -26 -63 0 -10 -4 -16 -9 -13 -5 4 -11 3 -14 -1 -2
-5 -2 -1 0 7 3 8 6 22 8 30 3 8 7 26 11 40 12 43 -5 16 -25 -41 -26 -72 -27
-29 -1 53 11 38 34 81 55 105 32 38 41 42 108 53 39 6 79 13 87 15 8 1 28 3
44 4 l30 1 -26 -27z m1392 -28 c-7 -9 -15 -13 -17 -11 -7 7 7 26 19 26 6 0 6
-6 -2 -15z m-1672 -12 c-17 -19 -116 -212 -129 -253 -6 -17 -7 -10 -4 25 5 46
4 49 -10 31 -8 -11 -16 -29 -16 -40 -1 -16 -2 -17 -6 -4 -2 9 3 33 12 54 8 20
14 39 11 41 -2 2 -11 -15 -21 -39 -14 -35 -19 -39 -24 -25 -6 17 -9 15 -21
-10 -7 -15 -13 -31 -12 -35 5 -20 -10 -5 -19 19 -7 18 -6 36 1 56 18 53 3 40
-19 -15 -11 -29 -20 -44 -21 -33 -1 18 -2 18 -16 -5 -15 -24 -15 -24 -9 20 8
57 35 119 68 150 17 17 58 34 124 52 122 33 131 34 111 11z m1310 -4 c68 -21
93 -39 55 -39 -29 -1 -97 -35 -137 -70 -41 -37 -87 -103 -139 -202 l-35 -67 3
42 c2 23 6 51 10 62 7 22 8 23 -48 -46 -25 -30 -28 -31 -21 -9 3 14 15 37 25
52 35 49 18 43 -31 -12 -49 -54 -64 -53 -35 4 30 58 5 42 -36 -22 l-29 -47 6
35 c18 95 98 239 158 285 78 59 139 67 254 34z m402 17 c0 -2 -12 -12 -27 -21
l-28 -18 19 21 c17 20 36 29 36 18z m25 -16 c-3 -5 -16 -15 -28 -21 -22 -12
-22 -12 -3 10 19 21 43 30 31 11z m75 -25 c0 -2 -10 -10 -22 -16 -21 -11 -22
-11 -9 4 13 16 31 23 31 12z m32 -15 c-41 -25 -54 -25 -23 0 13 11 31 20 40
20 9 0 3 -8 -17 -20z m78 6 c0 -5 -78 -46 -87 -46 -11 0 22 32 42 40 22 9 45
12 45 6z m-339 -47 c46 -17 88 -34 92 -38 5 -5 -13 -12 -40 -16 -53 -8 -113
-35 -156 -71 -34 -28 -26 -32 11 -5 53 36 97 44 221 36 105 -6 122 -10 181
-41 36 -19 79 -45 95 -59 28 -22 28 -24 9 -25 -82 -1 -237 -81 -333 -172 -27
-27 -52 -48 -55 -48 -15 0 -2 20 46 76 l52 59 -51 -49 c-28 -26 -56 -46 -61
-42 -6 3 -14 1 -18 -5 -4 -8 -3 -9 4 -5 24 14 11 -2 -13 -18 l-26 -17 21 40
c11 23 18 41 14 41 -3 0 -24 -19 -46 -42 -44 -46 -39 -30 14 52 l30 45 -45
-50 c-24 -27 -56 -63 -71 -80 l-27 -30 21 43 c29 59 43 99 32 87 -6 -5 -27
-30 -47 -55 l-38 -45 8 35 c7 32 6 34 -10 20 -17 -14 -17 -13 -7 6 46 86 163
209 227 240 57 27 52 30 -20 10 -70 -18 -105 -38 -167 -95 -31 -28 -58 -47
-62 -43 -4 4 -7 2 -6 -3 5 -21 0 -36 -10 -30 -5 3 -21 -13 -36 -35 -15 -22
-29 -38 -32 -35 -3 3 0 11 6 17 7 7 12 24 12 38 0 14 7 35 15 46 8 10 15 23
15 27 0 18 -24 -9 -62 -67 -24 -36 -37 -51 -34 -36 3 14 8 43 11 65 l6 40 -31
-57 c-17 -32 -32 -58 -35 -58 -3 0 4 22 14 50 22 56 11 57 -19 2 -34 -61 -13
3 30 93 21 44 56 99 78 123 41 45 42 52 2 25 -45 -30 -91 -77 -123 -128 -17
-27 -41 -63 -54 -78 -19 -23 -23 -25 -23 -10 0 35 48 119 100 176 84 93 137
116 286 126 11 0 58 -13 105 -30z m349 11 c-39 -21 -50 -24 -50 -12 0 12 40
31 65 31 15 0 11 -5 -15 -19z m-2222 -7 c-2 -5 -20 -42 -41 -83 -20 -41 -40
-89 -43 -107 -3 -18 -11 -33 -16 -33 -5 0 -7 13 -3 30 9 40 -2 38 -20 -2 l-14
-33 -1 33 c0 36 -19 35 -21 -1 0 -12 -3 -16 -6 -9 -8 19 -21 14 -26 -10 -3
-17 -5 -15 -6 8 0 17 6 51 14 74 25 71 9 56 -34 -32 -22 -46 -40 -75 -41 -65
0 28 55 129 88 160 35 34 182 93 170 70z m2242 -17 c0 -2 -8 -10 -17 -17 -16
-13 -17 -12 -4 4 13 16 21 21 21 13z m90 0 c0 -2 -17 -14 -37 -26 -31 -18 -35
-19 -22 -3 8 10 19 21 24 25 11 8 35 11 35 4z m120 -34 l35 -15 -35 -14 c-19
-9 -44 -20 -55 -26 -20 -10 -20 -10 -1 12 22 24 19 25 -21 11 -25 -9 -26 -8
-10 4 28 22 19 28 -15 10 -30 -16 -32 -16 -19 -1 16 20 9 21 -22 6 -15 -7 -13
-2 8 15 33 28 65 28 135 -2z m-2690 -84 c-11 -24 -29 -61 -40 -83 l-22 -40 6
45 5 45 -14 -40 c-7 -22 -14 -33 -14 -25 -1 13 -2 13 -11 0 -9 -13 -10 -13
-10 0 0 13 -1 13 -11 0 -9 -12 -10 -10 -5 9 3 14 1 20 -4 15 -5 -5 -13 -31
-19 -59 l-10 -50 4 59 c5 72 24 101 91 138 69 38 77 36 54 -14z m877 5 c-8
-16 -17 -35 -21 -43 -3 -8 -3 1 0 20 5 29 18 49 32 50 1 0 -4 -12 -11 -27z
m362 -6 c0 -21 -1 -21 -9 -2 -12 28 -12 37 0 30 6 -3 10 -16 9 -28z m-416 -12
c-9 -19 -18 -33 -21 -31 -4 5 26 66 33 66 3 0 -3 -16 -12 -35z m1972 21 c46
-12 155 -61 155 -70 0 -2 -18 -4 -40 -4 -22 0 -45 -4 -51 -8 -8 -4 -9 -3 -5 4
10 16 -26 15 -44 0 -12 -11 -12 -10 -1 5 16 20 9 22 -22 5 -20 -10 -21 -10 -8
5 17 21 7 22 -24 1 -14 -9 -25 -12 -25 -8 0 5 9 15 21 22 32 20 15 26 -23 7
l-33 -16 35 32 c32 28 33 30 10 24 -14 -4 -30 -10 -35 -14 -6 -3 -2 2 8 12 23
20 19 20 82 3z m-1882 -26 c-3 -12 -8 -19 -11 -16 -5 6 5 36 12 36 2 0 2 -9
-1 -20z m84 -2 c-3 -8 -6 -5 -6 6 -1 11 2 17 5 13 3 -3 4 -12 1 -19z m217 -50
l-15 -33 5 40 c3 22 6 47 7 55 0 9 4 6 9 -7 6 -16 4 -33 -6 -55z m-727 0 c-2
-13 -4 -3 -4 22 0 25 2 35 4 23 2 -13 2 -33 0 -45z m589 15 c-11 -20 -15 -23
-16 -10 0 17 21 49 28 42 2 -2 -3 -16 -12 -32z m-529 5 c-3 -8 -6 -5 -6 6 -1
11 2 17 5 13 3 -3 4 -12 1 -19z m50 -10 c-3 -8 -6 -5 -6 6 -1 11 2 17 5 13 3
-3 4 -12 1 -19z m-780 -34 c-6 -20 -13 -31 -15 -25 -6 18 -28 -17 -37 -56 -9
-46 -27 -42 -21 5 5 30 2 27 -12 -18 l-19 -55 -4 37 c-3 20 -2 46 3 57 6 18
94 90 110 91 3 0 1 -16 -5 -36z m1754 -31 c-12 -20 -14 -14 -5 12 4 9 9 14 11
11 3 -2 0 -13 -6 -23z m1464 -9 c27 -14 59 -33 71 -43 l23 -18 -47 -6 c-26 -3
-48 -1 -50 4 -6 16 -38 10 -68 -13 l-29 -22 29 32 c33 35 18 44 -24 15 l-25
-16 24 26 24 27 -26 0 c-14 0 -31 -8 -36 -17 -6 -10 -11 -13 -11 -6 0 6 5 15
10 18 19 12 10 26 -12 20 -23 -7 -23 -7 -3 9 31 24 95 20 150 -10z m-3118 -6
c-3 -8 -6 -5 -6 6 -1 11 2 17 5 13 3 -3 4 -12 1 -19z m2749 -13 c35 -14 159
-127 194 -175 l18 -25 -98 0 c-97 0 -98 0 -196 -50 -55 -27 -105 -49 -111 -49
-7 1 -10 -2 -8 -7 9 -13 -29 -29 -45 -19 -10 6 -22 3 -35 -8 -20 -17 -20 -17
-1 5 10 13 21 21 25 19 3 -2 33 24 66 57 33 32 47 50 30 39 -16 -11 -43 -34
-59 -50 -15 -17 -34 -28 -41 -26 -7 3 -29 -9 -49 -27 l-37 -32 23 35 c13 20
26 34 30 31 5 -2 16 1 25 7 16 10 15 10 -4 5 -18 -5 -20 -2 -16 15 4 15 -8 7
-42 -27 -47 -47 -47 -47 -30 -13 9 19 47 66 84 105 60 64 41 50 -46 -33 -19
-17 -39 -30 -44 -27 -5 4 -6 0 -4 -8 3 -7 -11 -27 -35 -46 -50 -40 -51 -27 -4
36 60 79 60 79 38 61 -11 -10 -24 -18 -29 -18 -4 0 -19 -12 -33 -27 l-25 -27
5 26 c5 24 3 26 -14 17 -37 -20 -2 25 77 99 83 77 154 116 249 137 81 18 100
18 142 0z m-3009 -70 c-10 -47 -11 -48 -17 -20 -7 36 -18 23 -29 -37 l-9 -43
-2 40 c-1 30 -3 35 -9 21 -6 -16 -9 -17 -16 -6 -6 10 6 26 41 56 27 23 50 42
51 41 1 -1 -3 -25 -10 -52z m3526 -39 c38 -16 135 -101 126 -110 -3 -4 -28 3
-54 14 -39 17 -50 18 -63 8 -12 -10 -14 -10 -8 0 4 7 2 12 -6 12 -8 0 -20 -6
-28 -12 -11 -10 -11 -9 0 6 14 18 13 19 -4 13 -15 -6 -17 -5 -7 7 9 11 7 15
-14 20 -14 4 -24 10 -21 14 6 11 -36 9 -54 -2 -8 -5 -4 3 9 17 28 31 72 35
124 13z m27 -106 c0 -5 -5 -10 -11 -10 -5 0 -7 5 -4 10 3 6 8 10 11 10 2 0 4
-4 4 -10z m-270 -50 c34 -9 110 -85 155 -153 l18 -28 -29 8 c-16 4 -46 8 -66
8 -28 -1 -40 4 -49 22 -18 34 -97 92 -142 104 -55 15 -80 1 -116 -63 -17 -29
-49 -71 -73 -93 -23 -22 -35 -31 -25 -19 19 24 23 39 5 28 -7 -4 -8 -3 -4 5 4
6 11 9 15 6 5 -2 17 5 27 18 18 20 18 21 1 7 -11 -8 -28 -15 -39 -17 -12 -2
-37 -17 -56 -35 -23 -20 -37 -27 -40 -19 -3 8 -15 3 -36 -16 -17 -15 -9 -4 19
25 39 41 45 52 30 52 -11 0 -32 -6 -46 -14 -15 -7 -32 -10 -39 -6 -16 10 100
98 185 140 91 46 223 63 305 40z m427 -27 c24 -14 133 -125 133 -136 0 -1 -22
-2 -49 -2 -38 0 -47 3 -43 14 4 11 -2 13 -28 8 -28 -6 -31 -5 -20 8 9 11 9 15
1 16 -6 1 -15 2 -20 3 -21 2 -68 52 -63 65 4 10 1 13 -9 9 -8 -3 -20 0 -26 8
-10 10 -8 14 10 17 49 9 84 6 114 -10z m-561 -131 c-25 -69 -80 -145 -207
-284 -241 -264 -345 -417 -399 -586 -47 -146 -51 -241 -21 -496 6 -50 9 -91 7
-93 -2 -2 -13 36 -26 84 -27 103 -40 125 -29 51 15 -108 7 -109 -16 -3 -27
129 -32 93 -10 -70 31 -228 29 -261 -7 -115 -10 41 -16 57 -13 35 11 -88 17
-190 11 -184 -11 10 -37 181 -30 202 4 14 3 17 -6 12 -10 -6 -12 1 -7 31 4 21
3 33 -2 26 -9 -15 -30 123 -32 208 -2 112 -17 7 -19 -135 -3 -135 -3 -138 -11
-65 -13 107 -19 110 -15 5 3 -63 2 -77 -3 -45 l-8 45 -2 -55 c-1 -30 -5 -73
-9 -95 -7 -35 -10 -26 -25 80 -9 66 -18 134 -20 150 -2 17 -5 -3 -6 -42 -1
-86 -20 -99 -22 -15 -1 31 -4 71 -8 87 -6 27 -8 25 -15 -24 -4 -30 -7 -122 -7
-205 -1 -116 -3 -145 -11 -126 -6 14 -11 79 -11 145 1 91 -1 109 -7 75 -5 -25
-9 -101 -10 -170 -3 -142 -9 -121 -31 98 -7 67 -14 120 -17 118 -2 -3 -8 -72
-12 -153 -7 -144 -7 -145 -10 -53 -3 92 -4 93 -10 35 l-7 -60 -2 80 c-3 66 -4
74 -11 45 -4 -19 -11 -70 -15 -114 -11 -120 -26 -79 -27 75 -2 203 28 283 192
499 48 63 111 151 141 195 66 97 184 223 301 320 137 114 408 401 446 472 18
34 38 63 45 66 23 8 27 -9 13 -51z m141 -123 c87 -172 85 -355 -7 -618 -71
-200 -108 -313 -134 -407 -33 -121 -119 -353 -124 -333 -1 8 16 75 38 148 23
73 39 135 37 137 -2 2 -12 -23 -22 -56 -10 -34 -21 -63 -25 -65 -36 -22 67
387 114 451 8 11 5 -11 -9 -51 -56 -174 -42 -167 19 10 l44 128 -36 -44 c-51
-62 -169 -180 -144 -144 11 17 52 73 91 125 122 165 166 267 177 415 8 104 -9
214 -46 294 -33 70 -36 85 -17 79 6 -3 27 -33 44 -69z m249 36 c14 -9 45 -43
69 -76 75 -102 125 -230 61 -159 -12 14 -33 34 -47 45 l-24 20 19 -23 c11 -13
21 -29 22 -37 3 -22 -69 -20 -87 2 -8 9 -13 18 -11 20 9 12 -2 33 -20 38 -13
4 -34 17 -48 30 -14 13 -35 26 -47 30 -13 3 -23 12 -23 19 0 7 -6 26 -14 42
-8 16 -17 40 -21 53 l-7 24 76 -6 c45 -3 88 -12 102 -22z m342 6 c22 -11 52
-41 73 -73 49 -72 54 -88 27 -88 -11 0 -27 8 -35 18 -14 16 -14 16 -9 0 8 -27
-8 -21 -27 10 -9 15 -38 50 -63 77 -39 43 -42 44 -17 10 17 -22 38 -53 48 -70
l17 -30 -23 30 c-13 17 -43 50 -66 74 -32 33 -40 47 -31 53 22 13 67 9 106
-11z m-1018 -5 c0 -2 -8 -10 -17 -17 -16 -13 -17 -12 -4 4 13 16 21 21 21 13z
m926 -37 c19 -22 19 -22 -3 -8 -13 8 -23 17 -23 21 0 12 6 9 26 -13z m1364
-49 c-57 -66 -122 -124 -328 -293 -147 -121 -215 -191 -262 -269 -17 -29 -29
-43 -27 -30 3 12 0 22 -6 22 -6 0 -7 3 -4 7 4 3 -1 12 -11 20 -9 8 -12 12 -5
9 6 -4 14 -2 17 3 12 18 -24 5 -49 -19 -14 -13 -27 -21 -29 -19 -13 13 69 88
273 252 124 99 271 219 326 267 160 138 196 155 105 50z m-1097 -158 c13 -12
57 -93 57 -106 0 -1 -9 -2 -20 -3 -20 -2 -28 12 -11 19 5 2 -5 16 -22 33 -24
23 -27 24 -18 7 8 -14 8 -22 1 -22 -5 0 -10 3 -10 8 0 4 -9 13 -21 20 -19 12
-19 12 -8 -10 l11 -23 -23 24 c-17 16 -20 25 -11 28 19 7 4 23 -16 17 -12 -4
-10 1 7 15 26 23 52 21 84 -7z m-282 -93 c30 -15 106 -179 84 -179 -3 0 -19
15 -35 33 -23 24 -29 27 -25 12 3 -11 -2 -5 -11 13 -10 17 -21 32 -25 32 -4 0
-4 -15 1 -32 l10 -33 -20 25 c-11 14 -20 30 -20 37 0 6 -5 15 -10 18 -7 4 -8
-8 -4 -34 4 -23 4 -41 1 -41 -3 0 -16 18 -28 40 -13 22 -26 40 -31 40 -11 0
-10 -2 7 -44 21 -49 1 -46 -27 4 -22 37 -46 56 -35 26 7 -17 -25 -16 -36 2
-11 17 -27 15 -43 -5 -12 -16 -12 -16 -7 5 6 23 -12 31 -20 10 -3 -8 -6 -5 -6
5 -1 14 -6 17 -23 12 -13 -3 -3 5 21 20 40 23 82 37 151 49 36 6 107 -2 131
-15z m389 -109 c23 -23 52 -88 47 -104 -2 -6 -11 3 -19 19 -9 17 -26 39 -38
50 l-23 20 12 -22 c20 -39 12 -39 -15 0 -14 21 -31 37 -37 36 -7 -1 -23 -1
-37 0 -43 2 -1 21 48 21 29 0 48 -6 62 -20z m-288 -185 c83 -17 204 -79 286
-145 l62 -50 -26 42 c-14 24 -47 64 -72 91 -26 26 -42 47 -36 47 22 0 203
-125 258 -178 65 -63 61 -47 -12 58 -42 58 -43 62 -17 43 41 -29 107 -100 140
-148 34 -50 25 -12 -12 55 l-26 45 33 -30 c17 -16 42 -50 55 -75 21 -38 24
-41 24 -20 1 14 -10 49 -24 79 -14 30 -24 56 -21 58 8 8 79 -84 108 -142 22
-43 32 -79 36 -127 2 -37 8 -65 13 -63 4 3 11 34 14 70 4 36 12 68 18 72 12 7
2 -297 -12 -362 -5 -22 -9 -35 -10 -29 0 7 -9 14 -19 16 -16 5 -20 20 -26 119
-4 63 -11 130 -15 149 l-9 35 -1 -45 c-1 -25 -6 -94 -13 -155 l-13 -110 -12
75 -12 75 4 -85 c4 -88 -2 -87 -26 4 -9 35 -14 44 -19 32 -4 -13 -10 -1 -18
35 -13 58 -43 142 -48 136 -2 -1 3 -27 11 -57 8 -30 14 -80 14 -110 l-1 -55
-13 35 -13 35 -3 -30 c-4 -28 -6 -26 -23 25 -19 56 -40 92 -29 50 5 -17 3 -21
-7 -15 -15 9 -6 -9 18 -37 8 -10 10 -18 4 -18 -6 0 -19 -3 -29 -6 -12 -4 -14
-3 -6 3 9 6 3 24 -22 68 -19 33 -35 56 -35 50 0 -5 11 -28 25 -50 34 -56 31
-67 -6 -22 -17 20 -34 35 -39 32 -4 -3 -14 3 -21 13 -13 15 -12 16 4 3 9 -7
17 -11 17 -8 0 3 -19 20 -42 39 l-42 33 34 -60 c66 -115 90 -160 90 -170 0 -5
-13 11 -28 36 -43 72 -147 209 -150 199 -2 -6 12 -29 32 -52 36 -41 68 -101
81 -148 5 -20 2 -18 -15 10 -33 53 -111 141 -119 136 -4 -3 -32 13 -62 35 -29
23 -72 50 -94 61 -22 12 -43 26 -47 32 -5 6 -8 7 -8 1 0 -5 -4 -4 -9 3 -4 7
-66 35 -137 62 -135 52 -147 63 -29 30 119 -34 137 -34 67 1 -37 18 -109 41
-175 54 -87 18 -102 23 -67 24 25 0 95 -8 155 -19 61 -10 112 -17 113 -15 4 4
-129 45 -146 45 -6 0 -12 6 -14 13 -3 6 -34 17 -69 23 l-64 12 117 1 c131 1
245 -17 308 -49 23 -12 44 -20 46 -17 2 2 -14 12 -36 22 -24 11 -36 21 -29 25
12 8 -127 61 -206 78 -135 31 -132 30 -100 31 28 0 130 -11 215 -25 35 -5 35
-5 10 10 -16 10 -19 16 -10 16 22 1 -38 32 -90 46 l-45 13 50 0 c28 0 80 -6
117 -14z m1138 -173 c-20 -36 -128 -169 -119 -147 5 13 133 185 137 185 2 0
-6 -17 -18 -38z m-42 -14 c-13 -18 -35 -48 -48 -65 -13 -18 -25 -31 -28 -28
-5 4 86 125 95 125 3 0 -6 -15 -19 -32z m-1614 -188 c30 -12 87 -30 126 -41
40 -11 90 -29 111 -40 49 -24 51 -18 3 11 -19 12 -33 24 -31 26 6 6 106 -34
165 -66 31 -18 80 -51 107 -73 28 -23 43 -33 36 -22 -31 41 -77 87 -109 107
-63 39 -23 30 59 -13 91 -48 192 -139 228 -204 23 -43 19 -12 -6 40 l-14 30
22 -25 c38 -44 71 -122 85 -200 l14 -75 -4 80 -4 80 20 -39 c44 -86 80 -216
123 -451 36 -195 38 -219 29 -293 -6 -57 -9 -62 -15 -37 -3 17 -7 23 -8 15 -1
-8 -13 11 -27 42 -13 32 -32 71 -42 87 -21 35 -96 117 -114 125 -7 3 -4 5 7 3
22 -3 51 18 67 47 8 14 7 17 -3 11 -9 -6 -11 -3 -6 9 4 10 3 15 -3 11 -15 -9
-12 2 7 33 9 15 0 8 -21 -15 -21 -24 -42 -43 -48 -43 -5 0 9 21 31 46 53 61
53 80 0 23 -37 -41 -38 -41 -14 -7 15 20 35 60 46 87 21 56 17 70 -5 19 -8
-18 -28 -49 -45 -68 l-31 -35 29 50 c43 73 51 111 11 52 -38 -56 -47 -57 -20
-1 10 21 22 53 25 69 l6 30 -14 -30 c-8 -16 -22 -39 -30 -50 -15 -18 -15 -16
-2 29 8 27 15 61 14 75 l-1 26 -7 -25 c-10 -32 -40 -90 -47 -90 -2 0 -1 8 4
18 5 9 9 42 9 72 l1 55 -15 -55 c-17 -64 -36 -91 -23 -34 5 22 5 62 1 89 -6
35 -9 41 -10 20 -3 -78 -31 -104 -31 -29 0 51 -19 52 -21 1 -1 -22 -4 -14 -10
23 -12 86 -30 120 -23 44 7 -70 -11 -100 -21 -37 -8 47 -46 166 -51 160 -2 -2
1 -19 6 -38 6 -19 7 -56 4 -83 l-7 -49 -22 64 c-26 76 -38 101 -61 120 -15 13
-16 12 -9 -11 25 -78 32 -140 15 -140 -5 0 -11 10 -11 23 -1 16 -2 18 -6 5 -2
-10 -9 -18 -14 -18 -6 0 -9 -8 -7 -17 2 -14 -11 -19 -80 -29 -59 -8 -106 -23
-170 -54 -119 -58 -155 -73 -148 -62 8 13 -12 28 -48 36 -40 10 -92 51 -104
84 -27 71 -25 75 18 28 39 -43 112 -78 128 -62 3 3 -9 9 -26 12 -18 4 -29 10
-27 15 3 4 -4 13 -16 19 -19 11 -49 65 -49 90 0 7 12 -2 26 -20 27 -31 72 -60
96 -60 7 0 -4 14 -25 31 -21 17 -45 45 -53 62 l-16 32 28 -27 c16 -15 47 -34
69 -43 l40 -16 -33 26 c-33 27 -70 85 -54 85 5 0 19 -11 31 -24 27 -29 81 -56
108 -56 12 1 7 5 -13 14 -30 13 -64 50 -64 70 0 5 12 -2 28 -17 29 -28 90 -57
119 -57 11 0 2 10 -23 25 -22 13 -53 43 -69 66 l-28 43 34 -23 c19 -12 57 -33
84 -47 l50 -25 -29 24 c-18 16 -26 29 -21 37 6 9 4 11 -5 5 -10 -6 -10 -4 -3
10 6 10 8 27 5 39 -4 17 -2 19 9 9 7 -7 17 -13 21 -13 10 0 -103 150 -133 175
-12 11 5 -16 38 -60 34 -44 60 -82 57 -84 -2 -3 -12 6 -21 19 -9 12 -35 44
-57 70 -23 25 -56 68 -74 94 -20 30 -37 44 -45 40 -6 -4 -9 -4 -5 1 4 4 0 14
-10 21 -25 20 -1 17 62 -6z m531 -10 c3 -6 -1 -7 -9 -4 -18 7 -21 14 -7 14 6
0 13 -4 16 -10z m-485 -141 c15 -28 5 -23 -15 7 -9 15 -12 23 -6 20 6 -4 16
-16 21 -27z m-1550 -43 c0 -3 -27 -19 -60 -37 -32 -17 -97 -63 -142 -101 -101
-84 -125 -109 -78 -79 52 33 172 91 189 91 13 0 13 -2 1 -14 -22 -20 -195
-119 -323 -183 l-111 -55 69 77 c135 150 210 206 366 270 92 38 89 37 89 31z
m257 -238 c-2 -18 -4 -4 -4 32 0 36 2 50 4 33 2 -18 2 -48 0 -65z m220 -20
c-3 -8 -6 -5 -6 6 -1 11 2 17 5 13 3 -3 4 -12 1 -19z m1490 -10 c-3 -8 -6 -5
-6 6 -1 11 2 17 5 13 3 -3 4 -12 1 -19z m10 -40 c-3 -8 -6 -5 -6 6 -1 11 2 17
5 13 3 -3 4 -12 1 -19z m-2187 -8 c-14 -11 -28 -20 -32 -20 -5 0 -7 -6 -5 -12
1 -7 -4 -12 -11 -10 -18 3 -74 -37 -67 -48 10 -16 -118 -86 -136 -75 -5 3 -38
-3 -75 -15 -98 -30 -120 -24 -34 10 41 17 140 66 220 109 145 79 187 98 140
61z m2149 -65 c63 -34 91 -59 91 -85 l0 -22 -34 21 c-18 12 -37 21 -42 21 -5
0 5 -8 21 -19 17 -10 39 -29 50 -42 l20 -23 -25 17 c-83 58 -176 67 -295 28
-102 -33 -102 -33 -81 -16 25 19 137 56 200 65 43 6 45 8 16 9 -60 2 -141 -23
-254 -77 -5 -3 -6 3 -2 13 6 16 5 16 -18 2 -20 -13 -25 -14 -29 -3 -3 8 0 19
6 26 10 10 7 10 -11 0 -13 -6 -26 -9 -29 -7 -8 9 161 96 217 111 69 20 138 13
199 -19z m-2224 -5 c-10 -11 -23 -20 -29 -20 -6 0 0 9 14 20 32 25 38 25 15 0z
m3267 -109 c21 -46 37 -86 35 -87 -7 -7 -57 93 -77 152 -21 61 -26 85 -8 44 6
-14 28 -63 50 -109z m-2978 -3 c-3 -12 -16 -30 -28 -40 -12 -9 -15 -17 -8 -18
6 0 12 5 12 12 0 6 2 9 5 7 2 -3 2 -15 -2 -27 -5 -21 -6 -21 -18 -5 -15 21 0
73 21 73 8 0 14 5 14 10 0 6 3 10 6 10 3 0 2 -10 -2 -22z m-146 -95 c-22 -54
-45 -116 -53 -138 -7 -22 -16 -48 -20 -57 -11 -28 10 -21 23 7 6 14 18 25 26
25 7 0 13 6 12 13 0 6 22 49 49 94 48 80 73 104 62 63 -3 -12 -1 -18 5 -14 32
20 -70 -192 -200 -415 -14 -25 -20 -41 -14 -37 10 6 134 189 219 322 6 11 -27
-60 -74 -156 -47 -96 -125 -238 -173 -315 -103 -167 -109 -179 -75 -140 33 37
199 287 250 377 22 37 41 66 43 64 4 -5 -152 -282 -212 -376 -58 -90 -62 -101
-26 -60 39 43 242 346 305 455 78 134 26 -5 -78 -210 -75 -148 -101 -203 -89
-190 5 6 60 88 122 183 62 94 114 172 116 172 8 0 -49 -118 -100 -210 -70
-124 -123 -233 -97 -200 11 14 50 68 88 120 62 87 210 270 219 270 6 0 -28
-67 -162 -321 -63 -118 -125 -242 -138 -275 -45 -114 -37 -118 18 -9 54 110
133 214 271 360 62 65 62 67 -29 -88 -64 -110 -189 -347 -182 -347 3 0 22 33
42 73 46 91 101 172 177 262 111 131 110 126 -19 -70 -40 -61 -111 -184 -158
-275 -91 -175 -109 -201 -51 -74 19 42 33 79 31 81 -13 13 -103 -187 -141
-312 -36 -120 -43 -139 -54 -143 -9 -3 -10 11 -6 50 5 39 4 49 -4 38 -22 -31
-4 113 23 177 14 35 26 68 25 75 -1 25 -89 -212 -123 -330 -46 -159 -60 -289
-53 -492 8 -250 18 -291 194 -840 63 -198 112 -329 187 -496 48 -106 13 -60
-58 76 -66 127 -103 218 -168 415 -27 83 -51 156 -54 164 -2 8 -7 11 -10 8 -7
-7 112 -361 165 -491 22 -54 59 -130 81 -169 22 -38 39 -71 37 -73 -5 -6 -71
93 -96 144 -13 26 -26 40 -33 36 -8 -5 -9 -1 -5 12 6 17 5 17 -5 2 -11 -15
-18 -4 -56 75 -24 51 -68 157 -97 237 -82 227 -76 213 -71 155 3 -34 2 -43 -4
-29 -5 12 -11 57 -15 100 -3 44 -8 90 -10 104 -17 95 -46 464 -46 605 l-1 170
-29 -168 c-15 -92 -32 -229 -37 -305 -6 -93 -10 -118 -12 -77 -11 241 -18 252
-16 25 2 -214 1 -238 -10 -186 -7 33 -9 67 -6 75 5 13 4 13 -9 2 -9 -9 -13
-31 -12 -65 2 -28 1 -46 -2 -41 -12 27 -35 215 -36 292 -1 77 -2 84 -11 53 -6
-21 -8 -118 -5 -250 4 -169 10 -234 26 -304 16 -70 18 -92 9 -98 -7 -4 -16 -4
-19 0 -17 19 -68 287 -70 367 0 22 -5 49 -10 60 -14 30 -3 -169 16 -298 9 -60
15 -111 12 -113 -7 -7 -49 203 -63 316 l-13 105 3 -158 c2 -86 1 -156 -1 -154
-8 8 -33 208 -33 265 0 40 -4 62 -12 62 -8 0 -9 -42 -4 -162 4 -89 5 -160 2
-157 -3 3 -6 23 -7 44 -2 22 -7 43 -12 46 -5 4 -11 81 -14 173 -3 91 -8 164
-11 161 -3 -2 -8 -33 -12 -67 -6 -56 -8 -49 -9 57 -4 177 -19 104 -28 -130 -9
-220 -20 -181 -22 70 -1 176 16 308 63 495 41 161 155 472 189 518 6 8 6 12
-2 12 -7 0 -4 16 9 43 18 35 18 38 3 20 -10 -13 -31 -47 -46 -75 -20 -37 -23
-46 -8 -28 11 14 21 29 21 34 0 5 2 7 5 4 10 -9 -36 -78 -48 -71 -5 3 -7 1 -4
-4 4 -6 -10 -40 -31 -75 -58 -96 -139 -278 -182 -404 -21 -63 -40 -108 -43
-99 -4 8 -2 17 3 20 6 4 10 12 10 18 0 8 -3 9 -8 1 -9 -13 -54 -26 -46 -13 3
5 3 9 0 9 -3 0 -12 -12 -21 -27 l-15 -28 6 30 c13 59 98 272 160 400 96 199
181 344 238 410 59 68 108 136 85 118 -9 -7 -19 -10 -22 -7 -15 15 -159 -158
-264 -316 -97 -147 -263 -479 -263 -527 0 -7 -6 -10 -13 -7 -8 3 -18 -9 -26
-31 -7 -20 -15 -34 -17 -32 -8 8 88 287 97 281 5 -3 6 2 3 10 -3 9 -1 16 6 16
6 0 9 4 6 9 -6 9 101 224 160 322 43 71 44 91 2 43 -18 -21 -32 -41 -31 -46 2
-4 -3 -7 -10 -5 -6 1 -12 -5 -12 -13 0 -8 -20 -42 -46 -75 -64 -82 -153 -233
-301 -505 -37 -69 -68 -122 -68 -118 -1 29 96 211 199 376 28 45 49 82 47 82
-12 0 -172 -240 -220 -330 -31 -58 -56 -100 -56 -94 0 29 124 252 198 354 45
63 66 97 46 75 -53 -59 -176 -247 -228 -350 -25 -49 -46 -87 -46 -83 0 3 20
54 45 113 96 229 266 473 500 715 96 100 189 211 152 181 -9 -7 -17 -10 -17
-6 0 4 -8 1 -17 -6 -10 -8 0 11 22 41 l39 55 -65 -63 c-66 -66 -195 -160 -204
-150 -3 3 7 14 23 24 17 11 76 64 133 119 57 55 91 90 74 79 -57 -41 -272
-143 -375 -179 -96 -33 -347 -91 -356 -82 -3 2 60 30 138 62 355 144 582 288
799 507 38 39 69 76 69 84 0 7 17 26 38 41 67 50 81 70 40 57 -21 -6 -22 -5
-8 12 14 18 2 8 -145 -131 -80 -75 -166 -137 -197 -142 -21 -3 -21 -3 -2 19
l19 23 -22 -19 c-19 -16 -21 -22 -10 -34 9 -13 9 -14 0 -8 -7 4 -13 3 -13 -3
0 -11 -44 -36 -115 -65 -45 -19 -38 -10 16 22 20 12 40 18 44 14 5 -4 5 -2 1
5 -5 9 -33 -2 -99 -37 -89 -48 -191 -93 -153 -67 248 162 484 331 543 390 35
34 81 93 103 131 l41 70 -68 -65 c-64 -62 -209 -167 -217 -158 -2 2 50 53 115
112 114 103 251 251 246 266 -2 8 154 160 164 161 4 0 -11 -44 -33 -97z m2109
35 c30 -28 29 -41 -4 -59 -33 -18 -110 -15 -174 6 -62 21 -67 30 -30 50 76 39
169 40 208 3z m-2304 0 c-5 -7 -50 -65 -99 -128 -50 -63 -94 -121 -98 -128
-11 -19 63 20 103 54 18 14 34 25 36 22 5 -5 -90 -90 -164 -145 -69 -52 -277
-165 -363 -197 -127 -47 -126 -45 32 110 183 180 253 237 400 324 63 38 124
75 135 84 24 19 30 20 18 4z m1163 -59 c-42 -82 -196 -272 -210 -258 -5 5 42
67 122 163 24 28 58 74 75 103 39 66 47 61 13 -8z m20 -46 c-14 -20 -26 -34
-26 -30 0 10 44 76 48 72 2 -2 -8 -21 -22 -42z m-1147 -25 c-34 -47 -121 -132
-171 -165 -68 -47 -76 -49 -33 -8 22 21 79 76 126 122 91 88 115 104 78 51z
m2306 -10 c-14 -84 -69 -128 -159 -128 -76 0 -138 37 -172 102 -20 38 -17 45
9 21 22 -21 79 -53 93 -53 5 0 -13 13 -38 29 -25 16 -49 35 -54 42 -4 7 7 2
25 -10 29 -21 44 -24 137 -24 91 0 102 -2 91 -15 -9 -11 -5 -11 15 2 15 10 33
31 40 47 18 40 21 36 13 -13z m315 1 c0 -4 -7 -10 -16 -13 -10 -4 -13 -2 -8 6
5 8 1 9 -11 4 -18 -7 -18 -6 0 14 14 16 20 17 27 8 4 -7 8 -16 8 -19z m440
-23 c129 -31 205 -57 279 -96 l56 -29 -69 64 -68 65 58 -26 c33 -14 75 -37 94
-51 72 -53 862 -855 901 -916 42 -65 52 -100 22 -76 -15 12 -16 12 -8 -1 5 -9
-1 -7 -15 5 -14 12 -20 14 -15 5 8 -13 7 -13 -11 -1 -10 8 -32 26 -49 40 -20
17 -24 19 -14 6 36 -45 29 -47 -16 -5 -46 42 -47 43 -17 7 49 -58 38 -57 -25
3 -32 30 -44 39 -27 20 50 -58 59 -71 43 -64 -8 3 -30 25 -49 49 -50 63 -58
55 -10 -10 22 -30 40 -57 40 -60 0 -4 -23 18 -51 47 l-51 53 37 -52 c41 -59
39 -69 -3 -21 -22 23 -29 27 -29 14 0 -29 51 -73 98 -86 24 -7 78 -27 119 -46
89 -40 117 -43 129 -12 10 27 25 7 16 -22 -11 -36 -48 -35 -118 4 -46 26 -76
36 -108 36 -66 1 -120 30 -157 85 -17 26 -33 52 -36 58 -3 9 -7 8 -14 -1 -7
-11 -11 -10 -16 3 -3 10 -1 24 5 31 6 8 9 14 5 14 -3 0 -15 -15 -26 -32 -11
-18 -20 -26 -20 -18 0 9 7 27 16 40 11 18 7 15 -15 -8 -19 -20 -31 -27 -31
-18 0 8 5 18 10 21 6 3 10 12 10 18 -1 7 -9 2 -20 -11 -24 -29 -41 -109 -33
-157 5 -32 14 -43 55 -68 26 -16 48 -31 48 -33 0 -1 -10 0 -22 2 -13 2 -7 -2
12 -10 32 -13 33 -15 10 -16 -20 -1 -14 -6 25 -21 28 -11 40 -17 27 -15 -12 2
-20 1 -17 -4 3 -4 35 -13 72 -20 89 -17 166 -45 189 -71 10 -12 31 -27 46 -35
35 -18 57 -60 68 -130 11 -67 -1 -139 -26 -165 -11 -10 -32 -21 -49 -24 l-30
-7 32 21 c40 25 53 49 53 100 l0 41 -102 -2 -103 -2 75 -6 c90 -8 82 -12 -20
-12 -81 1 -78 -3 15 -18 58 -9 57 -9 -30 -6 -94 4 -97 2 -24 -14 41 -9 40 -9
-21 -5 -36 2 -81 6 -100 9 -19 3 -3 -3 35 -13 97 -27 37 -27 -85 0 -52 11
-110 22 -127 23 -18 2 -38 8 -45 13 -7 6 -40 20 -73 32 -127 47 -287 124 -273
133 9 6 7 8 -7 6 -34 -2 -56 2 -52 10 10 15 -113 13 -143 -2 -20 -9 -28 -11
-24 -3 3 7 -4 1 -15 -13 -20 -24 -32 -53 -46 -115 l-8 -30 -13 32 c-7 17 -18
34 -24 38 -15 9 -12 51 5 65 8 7 15 9 15 4 0 -4 10 12 23 36 27 55 97 105 160
114 27 4 73 1 117 -8 40 -9 77 -13 81 -10 5 3 9 1 9 -5 0 -11 18 -17 70 -26
19 -3 39 -10 44 -16 24 -23 27 -6 4 19 -38 40 -60 90 -68 152 l-7 55 -1 -50
c-1 -30 6 -68 18 -95 20 -45 20 -45 0 -20 -17 22 -29 63 -43 145 -3 13 -6 8
-11 -16 -6 -28 -2 -51 17 -98 31 -77 24 -80 -10 -3 -21 47 -24 67 -20 117 7
81 -14 46 -23 -40 l-7 -60 -2 63 c0 35 5 78 14 98 8 19 10 32 5 29 -17 -11
-50 -83 -51 -112 -2 -24 -2 -25 -6 -5 -7 33 14 87 54 138 l34 46 -45 -31 c-25
-18 -51 -41 -57 -52 -6 -11 -13 -18 -16 -16 -11 11 30 70 67 95 22 15 39 31
40 35 0 15 -44 -4 -85 -36 l-40 -30 34 36 c40 43 134 94 216 119 l60 18 -58
-4 c-36 -3 -83 -16 -123 -35 -35 -16 -64 -28 -64 -26 0 6 96 55 140 71 32 11
33 13 9 13 -14 1 -52 -8 -85 -20 -165 -58 -149 -42 36 37 75 32 29 32 -65 0
-38 -14 -72 -23 -73 -21 -6 6 79 47 148 71 81 29 46 31 -45 3 -37 -11 -75 -23
-84 -25 -9 -3 14 11 51 30 62 33 187 64 267 67 25 1 25 1 -7 15 -18 8 -81 17
-140 21 l-107 7 55 12 55 12 -56 1 c-31 0 -80 -4 -109 -9 -29 -6 -55 -8 -58
-6 -7 7 129 47 182 53 28 4 42 9 35 13 -13 7 -134 -2 -219 -15 l-35 -5 32 14
c18 8 59 20 90 25 32 6 69 13 83 15 30 6 -155 -2 -225 -9 l-50 -5 32 15 c17 8
73 23 125 34 71 14 83 19 53 20 -41 1 -200 -15 -245 -24 -21 -5 -22 -4 -7 5
10 6 64 22 120 35 l102 24 -80 0 c-44 0 -108 -6 -142 -13 -35 -7 -61 -10 -58
-6 6 10 72 28 165 45 l75 15 -130 -3 c-122 -3 -127 -2 -85 10 25 8 71 16 103
20 31 3 57 9 57 14 0 9 -87 3 -177 -13 -34 -5 -67 -7 -74 -3 -18 12 38 32 123
44 40 6 84 13 98 15 14 2 -18 4 -70 4 -52 1 -124 -5 -160 -13 -76 -17 -108
-19 -94 -6 15 15 174 51 223 51 25 0 53 5 61 11 21 15 -123 5 -219 -16 -41 -8
-76 -13 -78 -11 -5 5 157 45 252 61 52 9 61 13 35 14 -19 1 -73 10 -120 21
l-85 18 100 -3 c84 -3 92 -3 50 5 -27 5 -102 16 -165 23 l-115 13 90 9 c60 5
110 4 155 -4 122 -23 118 -22 85 -10 -93 34 -185 72 -181 76 2 2 35 -5 72 -16
37 -11 69 -19 71 -17 7 7 -150 77 -237 107 -89 29 -174 67 -125 55 11 -3 67
-16 125 -30z m-1964 -6 c0 -10 -2 -17 -5 -14 -3 2 -23 -13 -45 -33 -22 -21
-32 -27 -21 -13 18 23 68 80 70 80 0 0 1 -9 1 -20z m908 -117 c61 -31 184 -42
256 -23 25 7 68 15 97 17 48 4 55 2 77 -24 33 -36 33 -53 1 -23 l-24 23 19
-39 c11 -21 20 -47 20 -59 -1 -12 -6 -5 -15 19 -7 21 -21 46 -30 55 -16 15
-16 14 -1 -16 9 -18 15 -49 15 -70 l-2 -38 -6 43 c-4 23 -13 48 -20 55 -10 9
-11 9 -6 -5 5 -13 2 -15 -16 -11 -13 4 -20 2 -16 -4 3 -5 -3 -27 -14 -47 -11
-21 -16 -35 -11 -32 5 3 17 22 27 42 9 19 19 33 22 31 9 -10 -9 -48 -40 -85
-18 -20 -23 -30 -12 -22 34 25 64 64 65 85 1 12 4 15 7 7 9 -24 -19 -72 -66
-112 -25 -22 -43 -40 -38 -40 4 0 28 19 52 41 25 23 48 40 50 37 3 -3 -19 -28
-49 -56 -30 -29 -51 -52 -47 -52 12 0 74 48 100 78 l24 27 -17 -30 c-10 -16
-32 -42 -49 -57 -17 -16 -28 -28 -24 -28 4 0 28 19 54 43 28 26 42 34 35 20
-7 -12 -31 -38 -54 -58 -37 -32 -39 -35 -12 -22 17 9 47 34 67 56 43 47 48 42
12 -10 -13 -20 -22 -39 -19 -41 2 -3 -14 -18 -36 -33 -53 -36 -51 -44 3 -12
23 13 59 48 80 77 20 30 37 50 37 46 0 -12 -31 -70 -48 -89 -16 -18 -11 -34 8
-22 6 4 25 25 41 47 16 23 29 38 29 34 0 -22 -34 -80 -80 -136 l-53 -65 52 50
c29 28 67 74 83 103 17 29 32 51 35 49 2 -3 -6 -31 -18 -63 -17 -44 -39 -76
-88 -125 -36 -36 -82 -74 -101 -83 l-35 -17 35 31 c40 35 27 40 -25 9 -20 -12
-38 -19 -41 -16 -3 3 17 17 45 31 28 15 51 28 51 31 0 3 -30 -6 -66 -20 -37
-14 -76 -25 -88 -24 -17 0 -15 3 9 12 40 16 78 38 73 42 -2 2 -22 -2 -43 -9
-22 -8 -76 -16 -120 -19 -50 -4 -71 -3 -55 2 14 5 41 10 60 10 19 1 49 8 65
15 28 13 24 14 -45 10 -59 -4 -70 -2 -51 6 28 12 24 18 -39 53 -25 14 -44 30
-43 35 1 6 -8 8 -20 6 -12 -2 -16 -1 -8 2 9 4 -7 13 -41 24 -62 19 -178 102
-178 127 0 13 6 12 28 -8 l27 -24 -24 27 c-13 15 -29 26 -35 25 -6 -1 -10 4
-8 11 1 8 -2 11 -7 8 -10 -7 -45 46 -56 84 -6 23 -5 22 13 -5 11 -16 41 -50
67 -75 l47 -45 -37 50 c-49 64 -75 121 -75 164 l0 35 26 -53 c15 -29 36 -56
48 -61 12 -4 28 -15 35 -24 7 -9 18 -16 24 -16 6 0 -1 12 -15 28 -14 15 -31
37 -37 49 -14 28 -14 54 1 28 16 -29 49 -64 83 -88 26 -18 25 -15 -8 19 -22
21 -46 53 -54 69 l-14 30 20 -25 c25 -30 27 -20 5 22 -9 16 -11 27 -5 24 6 -4
11 -1 11 6 0 7 9 -2 20 -20 23 -38 26 -56 5 -28 -8 11 -15 15 -15 9 0 -12 21
-31 33 -31 5 0 12 -4 15 -8 4 -4 1 -4 -5 0 -8 4 -13 2 -13 -5 0 -8 -5 -7 -17
2 -14 12 -16 12 -11 -1 3 -8 12 -14 21 -14 9 1 15 -2 12 -6 -3 -4 3 -14 13
-21 14 -11 15 -11 5 0 -6 7 -9 20 -6 27 4 12 8 12 21 2 9 -7 2 7 -16 31 -32
46 -41 68 -21 55 7 -4 7 2 -1 17 -18 35 -23 38 -16 9 6 -20 5 -22 -4 -8 -5 9
-7 23 -4 31 4 12 14 6 42 -25 19 -22 59 -51 86 -65z m-914 83 c0 -2 -8 -10
-17 -17 -16 -13 -17 -12 -4 4 13 16 21 21 21 13z m1481 -33 c13 -16 12 -17 -3
-4 -10 7 -18 15 -18 17 0 8 8 3 21 -13z m-194 -39 c-3 -3 -12 -4 -19 -1 -8 3
-5 6 6 6 11 1 17 -2 13 -5z m283 -58 c0 -12 -5 -7 -19 24 -11 24 -11 24 3 6 9
-11 16 -24 16 -30z m-195 16 c-3 -3 -11 0 -18 7 -9 10 -8 11 6 5 10 -3 15 -9
12 -12z m-1218 -29 c-8 -15 -34 -86 -57 -158 -24 -71 -73 -193 -110 -270 -37
-77 -72 -157 -79 -177 -15 -47 -22 -49 -15 -5 12 66 36 125 89 217 61 106 76
149 19 55 -41 -67 -102 -194 -130 -270 -32 -86 -28 -16 4 81 22 67 25 81 11
63 -10 -13 -25 -43 -34 -66 -23 -60 -36 -53 -19 10 18 69 17 70 -11 17 -17
-31 -24 -39 -25 -25 0 29 71 165 137 259 69 99 227 304 231 301 2 -2 -3 -16
-11 -32z m620 -241 c-12 -6 -68 36 -96 70 -18 23 -10 19 41 -19 35 -26 60 -50
55 -51z m-636 -53 c-22 -63 -39 -115 -38 -116 2 -1 26 44 55 100 28 56 52 98
52 94 0 -5 -11 -53 -25 -109 -32 -123 -71 -226 -97 -253 -16 -16 -15 -11 6 32
14 29 26 56 26 60 0 17 -36 -45 -67 -116 -18 -42 -33 -68 -33 -59 0 14 39 134
65 203 5 11 5 17 2 14 -12 -10 -66 -149 -73 -187 l-7 -37 -8 29 c-5 16 -5 34
-1 40 4 6 7 22 8 36 0 14 4 34 8 45 4 11 0 7 -9 -8 -9 -16 -13 -37 -10 -50 5
-17 4 -19 -4 -7 -9 12 -11 13 -11 1 0 -8 -2 -12 -5 -9 -10 9 35 121 86 217
105 195 114 210 117 202 1 -4 -15 -59 -37 -122z m235 -46 c-6 -77 -13 -119
-42 -223 l-6 -25 17 23 c26 36 66 140 80 212 7 36 14 53 14 38 1 -15 6 -30 12
-34 8 -4 9 1 5 17 -6 22 -6 22 5 5 14 -23 6 -174 -11 -206 -6 -12 -10 -29 -8
-38 2 -9 17 15 34 56 17 39 34 69 37 65 4 -3 4 8 1 25 -5 22 -3 32 6 32 9 0
11 -13 6 -52 -8 -59 -84 -228 -103 -228 -6 0 -23 -15 -38 -32 -24 -30 -24 -28
6 27 18 33 27 56 21 50 -19 -18 -112 -178 -113 -194 0 -9 -7 -34 -14 -56 l-14
-40 2 37 c4 50 -13 32 -20 -22 -4 -27 -9 -37 -14 -29 -6 11 -9 10 -13 -1 -2
-8 -7 -22 -9 -30 -3 -8 -6 12 -7 45 -2 70 -17 50 -20 -25 l-2 -45 -11 35 c-12
42 -15 142 -5 230 5 43 4 59 -2 49 -14 -25 -50 -179 -50 -217 0 -18 -4 -31 -9
-27 -5 3 -12 -7 -15 -22 -2 -16 -3 15 -2 67 2 55 0 84 -4 70 -5 -14 -9 -61
-10 -105 l-3 -80 -7 70 c-15 145 12 255 97 395 31 52 71 128 89 168 17 40 35
76 39 80 23 21 -35 -189 -71 -260 -8 -15 -14 -31 -14 -35 2 -33 125 208 137
266 6 34 7 35 14 11 6 -23 7 -23 8 8 1 17 4 32 7 32 4 0 4 -39 0 -87z m1128
-35 c-9 -18 -35 -58 -57 -88 -44 -60 -21 -47 45 25 20 22 37 35 38 28 0 -22
-122 -144 -175 -174 -67 -39 -79 -36 -30 7 35 30 24 40 -13 11 -7 -5 -15 -8
-17 -5 -3 2 16 20 43 38 68 48 109 88 144 143 35 54 46 62 22 15z m-56 -18
c-12 -22 -24 -38 -26 -35 -3 3 -12 -1 -21 -8 -8 -6 -4 3 9 22 14 18 29 39 35
47 21 30 23 12 3 -26z m183 -47 c-5 -10 -27 -39 -50 -65 -23 -25 -41 -49 -41
-53 0 -9 89 52 129 89 19 17 30 24 26 16 -24 -42 -82 -130 -109 -165 -42 -54
-9 -28 92 75 54 55 71 68 47 38 -21 -27 -32 -48 -26 -48 18 0 -51 -80 -108
-125 -28 -21 -48 -41 -46 -43 5 -5 93 59 175 128 30 25 64 53 75 60 40 31 -29
-54 -121 -147 -51 -51 -89 -93 -85 -93 3 0 48 32 100 70 52 38 97 67 100 65 2
-3 20 7 40 22 21 15 5 -6 -39 -52 -81 -83 -67 -85 29 -5 33 28 63 50 66 50 4
0 -34 -41 -84 -91 -50 -51 -89 -94 -86 -97 3 -3 31 19 63 50 50 49 142 116
142 104 0 -3 -25 -21 -55 -41 -30 -21 -58 -41 -61 -46 -10 -16 13 -9 50 16 20
13 36 23 36 21 0 -5 -139 -126 -170 -149 -45 -32 11 -2 125 68 59 36 109 64
111 62 3 -3 -86 -74 -170 -134 -17 -13 -28 -23 -24 -23 14 0 107 48 102 53 -3
3 12 11 33 17 21 7 44 17 51 23 7 5 15 7 18 4 3 -3 -24 -26 -60 -52 -36 -26
-66 -48 -66 -50 0 -6 142 54 157 66 7 6 13 9 13 6 0 -8 -94 -74 -142 -98 -71
-36 -27 -33 56 5 42 19 76 33 76 32 0 -8 -192 -118 -245 -141 -46 -20 -52 -24
-25 -19 43 7 142 46 234 90 57 28 66 30 50 13 -10 -12 -45 -39 -77 -61 -32
-22 -56 -42 -54 -44 5 -6 120 51 160 78 15 11 27 15 27 10 0 -10 -74 -72 -87
-72 -13 -1 -59 -40 -46 -40 6 0 15 5 18 10 3 6 15 10 25 10 19 0 80 32 114 59
11 9 5 -3 -13 -26 -19 -23 -51 -54 -72 -69 -22 -15 -38 -29 -36 -31 4 -3 138
68 166 89 9 6 -23 -25 -71 -71 -49 -45 -88 -87 -88 -93 0 -6 8 -4 18 4 21 18
42 31 42 25 0 -3 -30 -30 -67 -61 -38 -31 -81 -69 -97 -84 -27 -24 -28 -24
-10 -2 l19 24 -28 -18 c-28 -17 -28 -17 -18 3 6 11 16 23 21 26 6 3 10 11 10
18 0 6 -19 -7 -42 -29 -92 -86 -106 -90 -50 -16 18 24 21 32 9 32 -8 0 -20 -7
-27 -15 -7 -9 -31 -30 -54 -48 l-40 -32 44 60 c24 33 36 53 26 45 -10 -8 -25
-15 -33 -16 -9 -2 -30 -15 -47 -31 l-31 -28 28 31 c25 28 27 33 12 41 -13 8
-8 17 37 59 29 27 71 64 93 82 39 32 39 33 7 17 -42 -20 -166 -100 -214 -137
-54 -42 -43 -5 13 44 51 44 44 51 -10 11 -46 -35 -71 -40 -40 -7 12 13 20 26
17 29 -3 3 -11 -1 -18 -10 -7 -8 -19 -15 -27 -15 -8 0 -11 -5 -7 -12 4 -7 4
-10 -1 -6 -4 4 -15 2 -24 -4 -9 -7 4 10 29 37 48 53 36 47 -50 -25 -30 -25
-51 -39 -47 -32 5 7 3 12 -5 12 -8 0 -20 -6 -27 -12 -8 -7 -5 2 5 20 10 17 22
32 27 32 5 0 27 18 49 40 22 21 48 42 59 45 10 4 19 10 19 15 0 17 -97 -27
-119 -54 -7 -8 -18 -13 -25 -10 -7 3 -19 -2 -26 -11 -7 -8 -16 -15 -21 -15
-11 0 15 33 59 77 18 18 29 33 24 33 -13 0 -89 -55 -137 -99 -21 -20 -33 -28
-25 -18 8 10 14 27 15 37 1 10 18 37 38 59 66 73 44 64 -47 -19 -27 -24 -35
-29 -28 -14 7 12 35 43 64 69 29 27 42 42 28 35 -14 -7 -38 -25 -55 -40 -16
-15 -39 -30 -49 -34 -20 -7 -20 -7 0 16 33 39 74 72 138 112 33 21 50 35 36
31 -14 -3 -32 -7 -40 -7 -8 0 -34 -14 -58 -29 -24 -16 -48 -29 -55 -29 -22 1
28 31 140 85 61 30 114 59 118 65 5 9 2 9 -11 2 -11 -6 -49 -20 -84 -32 -36
-12 -90 -35 -120 -51 -41 -21 -48 -23 -30 -8 14 12 60 39 104 61 82 41 93 53
35 38 -18 -5 -72 -18 -119 -30 -97 -25 -172 -61 -249 -118 -32 -24 -60 -38
-69 -35 -9 4 -13 2 -9 -4 3 -5 0 -10 -8 -10 -35 0 76 113 172 174 32 20 94 56
138 80 91 48 89 55 -6 17 -165 -67 -272 -137 -363 -235 -57 -62 -58 -62 -37
-20 12 23 26 39 31 36 5 -3 7 1 4 9 -12 30 149 177 176 161 6 -4 9 -1 8 7 -2
7 5 12 14 12 10 -1 15 3 11 9 -4 6 2 8 16 4 12 -3 35 1 51 10 32 15 41 27 13
16 -11 -4 -14 -3 -9 5 4 7 37 26 73 43 66 31 81 51 22 30 -65 -22 -52 -9 43
43 114 63 189 116 217 154 11 15 21 22 21 16 0 -5 -20 -34 -45 -63 -25 -29
-45 -55 -45 -57 0 -13 97 66 129 104 38 45 47 52 32 25z m-1054 -84 c-3 -39
-11 -77 -18 -85 -20 -24 4 -15 35 14 l30 27 -18 -30 c-10 -16 -28 -40 -39 -52
-11 -13 -18 -25 -16 -28 3 -2 39 12 81 33 90 44 92 29 2 -28 -60 -38 -88 -64
-43 -39 27 14 199 78 199 74 0 -2 -34 -25 -75 -51 -42 -25 -74 -48 -72 -50 5
-6 74 19 128 46 l44 21 -55 -51 c-60 -56 -59 -58 17 -18 43 23 51 25 48 10 -1
-9 -10 -16 -19 -16 -8 1 -14 -2 -11 -6 2 -4 -20 -24 -50 -44 -30 -20 -84 -66
-120 -103 -68 -69 -78 -68 -45 6 11 24 19 46 17 48 -7 6 -36 -43 -57 -94 -23
-57 -26 -31 -6 47 13 48 13 53 0 35 -8 -11 -20 -39 -26 -63 -11 -44 -32 -71
-24 -30 3 12 8 40 11 61 3 21 8 46 11 55 16 50 -23 -33 -43 -93 l-24 -70 6 50
c3 28 10 72 16 98 16 68 4 70 -17 3 -10 -31 -22 -56 -26 -56 -5 0 -7 -3 -5 -7
3 -5 1 -17 -4 -28 l-8 -20 0 20 c-1 43 40 208 63 253 13 26 42 82 65 126 23
43 41 84 41 92 0 8 3 14 6 14 4 0 4 -32 1 -71z m536 54 c-7 -2 -19 -2 -25 0
-7 3 -2 5 12 5 14 0 19 -2 13 -5z m-458 -133 c-3 -5 -16 -15 -28 -21 -22 -12
-22 -12 -3 10 19 21 43 30 31 11z m-1275 -82 c-129 -240 -214 -528 -226 -766
-10 -188 22 -445 74 -593 33 -93 134 -319 143 -319 5 0 2 17 -7 38 -81 186
-130 386 -148 612 -7 81 9 58 17 -25 12 -122 105 -487 128 -500 4 -3 -3 27
-17 67 -41 121 -85 424 -82 568 0 47 3 69 5 50 16 -180 28 -258 48 -335 28
-108 29 -105 10 50 -8 66 -14 149 -13 185 0 36 3 52 5 35 14 -114 59 -300 98
-410 54 -150 183 -419 249 -519 25 -38 46 -73 46 -78 0 -12 178 -259 263 -365
l71 -88 -59 54 c-60 57 -143 144 -233 246 -52 60 -52 60 -21 12 33 -51 34 -72
0 -38 -47 47 -92 19 -61 -39 7 -14 6 -23 -6 -34 -14 -15 -11 -20 8 -17 4 0 5
-5 2 -12 -2 -7 33 -64 78 -127 87 -120 174 -253 138 -210 -11 14 -38 45 -59
70 -20 25 -86 105 -144 178 -59 73 -107 129 -107 124 0 -13 98 -157 186 -274
76 -99 164 -231 164 -244 0 -4 -22 23 -49 59 -27 36 -91 116 -143 179 -52 62
-116 142 -143 178 -27 36 -50 67 -52 69 -2 2 -5 2 -8 -1 -7 -7 113 -184 210
-308 83 -107 149 -203 89 -130 -16 19 -58 66 -93 105 -96 104 -167 196 -258
333 -46 68 -83 121 -83 118 0 -34 139 -252 240 -376 52 -64 60 -83 12 -30 -22
25 -61 68 -86 95 -60 65 -161 217 -220 330 -26 50 -44 80 -41 68 14 -50 -11
-14 -43 62 -2 6 6 -1 18 -15 l21 -25 -16 33 c-9 18 -20 30 -25 27 -6 -4 -7 1
-3 11 4 11 2 15 -4 11 -6 -4 -23 22 -41 62 -35 78 -105 282 -99 288 4 3 36
-80 52 -135 4 -13 11 -19 17 -16 8 5 9 1 5 -10 -8 -20 23 -102 33 -87 3 6 14
-4 23 -25 10 -19 13 -33 7 -29 -6 3 -10 -4 -10 -17 0 -13 3 -18 8 -12 9 15 42
14 42 -1 0 -16 29 -73 40 -80 5 -3 -4 23 -19 57 -29 63 -111 281 -149 393 -11
33 -28 97 -38 142 -15 72 -19 80 -31 65 -7 -9 -12 -12 -11 -7 1 6 -2 26 -7 45
-8 34 -9 34 -16 10 -7 -20 -8 -16 -6 17 1 23 0 40 -4 37 -13 -8 -19 219 -8
361 10 153 35 308 39 250 2 -26 3 -23 11 15 5 25 7 57 3 72 -11 53 81 284 186
468 71 123 89 131 34 14 -51 -108 -104 -233 -104 -243 0 -3 22 35 49 86 54
100 150 263 156 263 2 0 -13 -33 -35 -72z m1438 -112 c-21 -15 -24 -31 -5 -20
6 4 -10 -15 -36 -40 -26 -26 -64 -72 -84 -102 -36 -54 -53 -72 -33 -33 11 19
10 20 -9 9 -28 -14 -26 -7 8 43 33 48 109 125 143 144 30 16 38 16 16 -1z m12
-101 c0 -2 -10 -10 -22 -16 -21 -11 -22 -11 -9 4 13 16 31 23 31 12z m-30 -39
c0 -3 -4 -8 -10 -11 -5 -3 -10 -1 -10 4 0 6 5 11 10 11 6 0 10 -2 10 -4z m454
-54 c3 -5 -1 -9 -9 -9 -8 0 -12 4 -9 9 3 4 7 8 9 8 2 0 6 -4 9 -8z m-1789
-217 c-23 -245 -23 -261 30 -660 35 -260 37 -275 32 -275 -9 0 -58 149 -82
250 -49 200 -45 589 7 771 12 43 24 77 25 75 2 -2 -4 -74 -12 -161z m61 -92
c-8 -60 4 -323 16 -323 4 0 8 42 9 93 1 50 4 119 8 152 5 49 8 29 14 -110 5
-93 12 -195 16 -225 7 -48 9 -39 11 65 3 143 17 113 19 -40 2 -146 32 -389 67
-540 3 -11 -5 -2 -18 20 -12 22 -37 96 -55 165 -18 69 -32 118 -33 109 0 -24
47 -250 59 -282 6 -16 7 -26 2 -22 -9 5 -40 94 -81 234 -37 126 -33 70 5 -79
37 -142 42 -187 12 -108 -24 62 -55 200 -67 298 -25 205 -22 502 6 616 10 41
17 26 10 -23z m2129 27 c-3 -5 -12 -10 -18 -10 -7 0 -6 4 3 10 19 12 23 12 15
0z m1692 -102 c3 -98 -12 -69 -21 39 -4 49 -2 63 6 55 6 -6 13 -49 15 -94z
m-5708 56 c-13 -14 -51 -49 -84 -76 -55 -46 -54 -44 17 26 43 42 81 76 85 76
3 0 -4 -12 -18 -26z m1348 -6 c-3 -8 -6 -5 -6 6 -1 11 2 17 5 13 3 -3 4 -12 1
-19z m-1337 -21 c0 -2 -12 -14 -27 -28 l-28 -24 24 28 c23 25 31 32 31 24z
m1574 -591 c10 -43 15 -80 13 -82 -8 -8 -38 153 -45 246 -4 52 -5 151 -3 220
6 122 6 120 12 -90 4 -144 12 -241 23 -294z m3316 426 c19 -12 32 -22 28 -22
-13 0 -94 39 -113 54 -19 16 -18 16 15 3 19 -8 51 -24 70 -35z m-2880 -143 c1
-210 12 -329 44 -469 13 -58 23 -106 21 -108 -7 -7 -48 134 -61 209 -19 113
-28 312 -19 442 4 60 9 107 11 105 2 -2 4 -83 4 -179z m2830 142 c81 -39 81
-40 41 -39 -23 0 -53 -7 -68 -17 l-28 -18 20 23 c17 20 18 23 3 17 -10 -4 -18
-2 -18 4 0 6 -4 7 -10 4 -6 -3 -7 1 -4 9 7 19 -7 21 -26 4 -8 -7 -7 -4 3 8 23
28 21 37 -5 23 -21 -11 -22 -11 -9 4 7 10 15 17 16 17 2 0 40 -18 85 -39z
m235 -119 c-2 -2 -27 4 -55 13 -28 9 -54 14 -57 11 -4 -3 -1 -6 6 -6 7 0 10
-4 6 -9 -3 -6 3 -10 12 -10 25 0 115 -22 110 -27 -4 -4 -90 10 -132 22 -16 4
-17 3 -5 -5 8 -5 11 -13 7 -18 -13 -12 -27 20 -15 34 15 19 -2 16 -26 -4 -17
-15 -18 -15 -8 -2 10 14 10 18 -3 23 -8 3 -15 1 -15 -5 0 -6 -7 -3 -16 6 -10
10 -24 13 -38 9 -21 -6 -21 -6 -1 11 17 14 17 16 3 11 -26 -8 -22 3 4 13 16 6
52 -2 124 -28 56 -20 101 -38 99 -39z m-90 63 c39 -17 21 -18 -25 0 -19 7 -28
14 -20 14 8 0 29 -6 45 -14z m-2905 -284 c12 -112 19 -206 16 -209 -3 -3 -6 2
-6 11 0 9 -6 17 -13 17 -7 0 -14 12 -15 28 -1 15 -7 63 -12 107 -12 98 -12
311 0 275 5 -14 18 -117 30 -229z m2925 189 c3 -5 2 -10 -4 -10 -5 0 -13 5
-16 10 -3 6 -2 10 4 10 5 0 13 -4 16 -10z m585 -5 c0 -20 -27 -85 -35 -85 -4
0 -3 10 0 23 16 56 15 59 -9 22 -29 -46 -33 -43 -11 8 18 43 55 64 55 32z
m-3553 -267 c-2 -13 -4 -5 -4 17 -1 22 1 32 4 23 2 -10 2 -28 0 -40z m10 -50
c-3 -8 -6 -5 -6 6 -1 11 2 17 5 13 3 -3 4 -12 1 -19z m-651 -275 c33 -157 141
-493 197 -614 18 -40 22 -56 12 -56 -20 0 -110 198 -166 365 -54 160 -78 284
-84 432 -2 52 -1 82 1 65 3 -16 21 -103 40 -192z m711 155 c-3 -8 -6 -5 -6 6
-1 11 2 17 5 13 3 -3 4 -12 1 -19z m-1370 -20 c-3 -8 -6 -5 -6 6 -1 11 2 17 5
13 3 -3 4 -12 1 -19z m1608 -210 c9 -48 44 -170 80 -270 35 -100 62 -184 60
-186 -7 -8 -44 62 -80 151 -55 136 -82 257 -89 387 -5 122 -6 124 29 -82z m48
-20 c0 -27 4 -43 7 -38 11 17 50 -147 42 -171 -18 -49 -73 204 -71 326 l2 60
9 -65 c5 -36 10 -86 11 -112z m994 95 c-3 -10 -5 -4 -5 12 0 17 2 24 5 18 2
-7 2 -21 0 -30z m-1249 -4 c-3 -8 -7 -3 -11 10 -4 17 -3 21 5 13 5 -5 8 -16 6
-23z m89 9 c-3 -8 -6 -5 -6 6 -1 11 2 17 5 13 3 -3 4 -12 1 -19z m42 -23 c0
-5 -4 -3 -9 5 -5 8 -9 22 -9 30 0 16 17 -16 18 -35z m170 -70 c-5 -13 -8 0 -7
40 0 56 1 58 8 20 4 -22 4 -49 -1 -60z m-202 33 c-3 -8 -6 -5 -6 6 -1 11 2 17
5 13 3 -3 4 -12 1 -19z m180 -432 c-4 -11 -82 184 -117 289 -13 39 -25 90 -26
115 -2 33 16 -12 71 -175 41 -121 73 -224 72 -229z m-117 244 c29 -85 66 -184
81 -219 16 -35 27 -66 25 -68 -4 -5 -41 70 -51 105 -3 12 -11 22 -17 22 -5 0
-8 7 -4 15 3 8 1 15 -5 15 -6 0 -7 5 -4 10 3 6 1 10 -5 10 -7 0 -9 7 -6 16 3
8 2 13 -3 10 -5 -3 -11 2 -14 12 -41 138 -65 246 -54 231 2 -2 28 -74 57 -159z
m1649 -220 c18 -93 39 -163 77 -254 38 -90 38 -112 0 -39 -14 26 -25 42 -26
34 0 -20 -37 30 -60 81 -38 88 -60 149 -50 143 17 -11 11 30 -16 100 -14 38
-27 98 -30 134 l-4 66 19 -91 c11 -50 30 -116 44 -145 14 -30 28 -61 31 -69 3
-8 4 -1 2 15 -23 159 -28 240 -20 321 l8 89 7 -160 c3 -88 12 -189 18 -225z
m-1494 333 c-4 -16 -3 -25 1 -20 4 4 16 -19 26 -50 19 -63 23 -86 9 -64 -7 12
-10 11 -14 -5 -2 -10 -2 -1 -1 21 3 27 1 34 -4 21 -7 -15 -11 -6 -21 41 -8 34
-10 66 -7 72 13 20 18 11 11 -16z m-1638 -25 c-3 -8 -6 -5 -6 6 -1 11 2 17 5
13 3 -3 4 -12 1 -19z m50 -10 c-3 -7 -5 -2 -5 12 0 14 2 19 5 13 2 -7 2 -19 0
-25z m10 -50 c-3 -8 -6 -5 -6 6 -1 11 2 17 5 13 3 -3 4 -12 1 -19z m360 -10
c-3 -8 -6 -5 -6 6 -1 11 2 17 5 13 3 -3 4 -12 1 -19z m2520 -20 c-3 -7 -5 -2
-5 12 0 14 2 19 5 13 2 -7 2 -19 0 -25z m130 -45 c-2 -16 -4 -5 -4 22 0 28 2
40 4 28 2 -13 2 -35 0 -50z m-120 -5 c-3 -8 -6 -5 -6 6 -1 11 2 17 5 13 3 -3
4 -12 1 -19z m-1257 3 c0 -5 -5 -11 -12 -13 -7 -3 -9 -11 -4 -24 8 -19 8 -19
16 1 5 11 9 15 9 8 1 -6 4 -20 7 -30 4 -13 3 -15 -4 -4 -6 8 -12 9 -16 3 -3
-6 -2 -13 3 -16 5 -4 17 -31 25 -61 9 -30 21 -57 28 -61 8 -5 9 -2 5 10 -4 11
-3 15 4 11 6 -4 8 -14 5 -22 -3 -8 -3 -26 0 -40 5 -19 9 -22 16 -11 7 10 8 8
4 -5 -3 -10 -6 -24 -6 -30 -1 -21 -41 63 -76 161 -32 87 -36 132 -13 132 5 0
9 -4 9 -9z m204 -116 c19 -50 44 -109 56 -133 11 -23 18 -48 14 -54 -4 -7 -3
-8 4 -4 7 4 14 -4 19 -21 l7 -28 6 25 c10 43 91 -357 89 -440 -1 -33 -2 -32
-9 10 -4 25 -11 72 -16 105 -7 57 -8 58 -15 25 -3 -19 -7 -26 -8 -15 -2 32
-57 201 -95 292 -18 45 -31 85 -27 89 3 4 1 4 -6 1 -13 -8 -2 -51 45 -167 17
-41 33 -88 36 -105 4 -16 -5 1 -19 39 -13 37 -29 73 -33 80 -5 6 -24 57 -41
113 -17 56 -34 110 -37 120 -4 13 0 12 15 -6 26 -29 26 -25 -4 78 -38 128 -32
127 19 -4z m1131 -108 c30 -65 28 -91 -3 -30 -22 42 -72 197 -71 216 0 7 11
-19 24 -58 12 -38 35 -96 50 -128z m63 118 l1 -20 -9 20 c-5 11 -8 34 -8 50
l0 30 8 -30 c4 -16 8 -39 8 -50z m-1448 50 c4 3 6 -5 2 -17 -5 -21 -6 -21 -13
-2 -4 10 -8 24 -8 29 1 6 3 4 6 -3 2 -6 8 -10 13 -7z m29 -62 c1 -7 -3 -13 -9
-13 -5 0 -6 7 -3 17 4 10 2 14 -4 10 -7 -5 -9 1 -5 15 5 21 6 21 13 2 4 -10 8
-25 8 -31z m61 2 c0 -5 -5 -3 -10 5 -5 8 -10 20 -10 25 0 6 5 3 10 -5 5 -8 10
-19 10 -25z m7 -37 c-3 -8 -6 -5 -6 6 -1 11 2 17 5 13 3 -3 4 -12 1 -19z m-60
-10 c2 -18 0 -20 -7 -8 -12 18 -13 30 -2 30 4 0 9 -10 9 -22z m-823 -34 c3 -8
2 -12 -4 -9 -6 3 -10 10 -10 16 0 14 7 11 14 -7z m835 -84 c11 -24 11 -24 -3
-6 -9 11 -16 24 -16 30 0 12 5 7 19 -24z m308 -12 c-3 -8 -6 -5 -6 6 -1 11 2
17 5 13 3 -3 4 -12 1 -19z m1087 -54 c3 -8 2 -12 -4 -9 -6 3 -10 10 -10 16 0
14 7 11 14 -7z m-1734 -132 c0 -26 -25 -5 -28 24 -2 28 -2 28 13 10 8 -11 15
-26 15 -34z m1821 -29 c13 -16 12 -17 -3 -4 -10 7 -18 15 -18 17 0 8 8 3 21
-13z m50 -60 c13 -16 12 -17 -3 -4 -10 7 -18 15 -18 17 0 8 8 3 21 -13z
m-1124 -305 c-2 -13 -4 -5 -4 17 -1 22 1 32 4 23 2 -10 2 -28 0 -40z"/>
<path d="M3560 8760 c-6 -11 -8 -20 -6 -20 3 0 10 9 16 20 6 11 8 20 6 20 -3
0 -10 -9 -16 -20z"/>
<path d="M3597 8773 c-2 -5 -17 -30 -32 -58 -16 -27 -24 -45 -18 -40 14 14 66
105 60 105 -3 0 -8 -3 -10 -7z"/>
<path d="M3615 8750 c-9 -16 -13 -30 -11 -30 3 0 12 14 21 30 9 17 13 30 11
30 -3 0 -12 -13 -21 -30z"/>
<path d="M3770 8770 c-6 -11 -8 -20 -6 -20 3 0 10 9 16 20 6 11 8 20 6 20 -3
0 -10 -9 -16 -20z"/>
<path d="M3986 8677 c3 -10 9 -15 12 -12 3 3 0 11 -7 18 -10 9 -11 8 -5 -6z"/>
<path d="M4076 8633 c-6 -14 -5 -15 5 -6 7 7 10 15 7 18 -3 3 -9 -2 -12 -12z"/>
<path d="M4055 8599 c-4 -6 -5 -12 -2 -15 2 -3 7 2 10 11 7 17 1 20 -8 4z"/>
<path d="M3316 8755 c-9 -26 -7 -32 5 -12 6 10 9 21 6 23 -2 3 -7 -2 -11 -11z"/>
<path d="M3036 8695 c-9 -26 -7 -32 5 -12 6 10 9 21 6 23 -2 3 -7 -2 -11 -11z"/>
<path d="M4536 8576 c-36 -48 -33 -57 4 -11 17 21 30 39 30 41 0 10 -10 1 -34
-30z"/>
<path d="M4949 8473 c-13 -16 -12 -17 4 -4 9 7 17 15 17 17 0 8 -8 3 -21 -13z"/>
<path d="M5080 8335 c-11 -13 -10 -14 4 -9 9 3 16 10 16 15 0 13 -6 11 -20 -6z"/>
<path d="M5156 8319 c-14 -11 -31 -30 -37 -42 -7 -14 4 -7 30 18 22 21 41 40
41 42 0 7 -8 2 -34 -18z"/>
<path d="M5163 8274 c-26 -25 -39 -40 -28 -35 21 11 93 81 83 81 -3 0 -28 -20
-55 -46z"/>
<path d="M4571 6834 c0 -11 3 -14 6 -6 3 7 2 16 -1 19 -3 4 -6 -2 -5 -13z"/>
<path d="M4641 6674 c0 -11 3 -14 6 -6 3 7 2 16 -1 19 -3 4 -6 -2 -5 -13z"/>
<path d="M4421 6644 c0 -11 3 -14 6 -6 3 7 2 16 -1 19 -3 4 -6 -2 -5 -13z"/>
<path d="M4372 6575 c0 -16 2 -22 5 -12 2 9 2 23 0 30 -3 6 -5 -1 -5 -18z"/>
<path d="M6255 7891 c21 -22 41 -41 43 -41 8 0 -51 65 -67 74 -9 5 2 -10 24
-33z"/>
<path d="M6038 7163 c7 -3 16 -2 19 1 4 3 -2 6 -13 5 -11 0 -14 -3 -6 -6z"/>
<path d="M6300 6987 c0 -3 23 -19 50 -37 28 -18 66 -51 85 -74 19 -22 35 -36
35 -30 0 16 -86 98 -130 123 -22 12 -40 20 -40 18z"/>
<path d="M6600 6916 c0 -2 8 -10 18 -17 15 -13 16 -12 3 4 -13 16 -21 21 -21
13z"/>
<path d="M6680 6826 c0 -2 8 -10 18 -17 15 -13 16 -12 3 4 -13 16 -21 21 -21
13z"/>
<path d="M5820 6845 c19 -19 36 -35 39 -35 3 0 -10 16 -29 35 -19 19 -36 35
-39 35 -3 0 10 -16 29 -35z"/>
<path d="M5895 6800 c33 -33 62 -60 64 -60 3 0 -21 27 -54 60 -33 33 -62 60
-64 60 -3 0 21 -27 54 -60z"/>
<path d="M6332 6490 c0 -14 2 -19 5 -12 2 6 2 18 0 25 -3 6 -5 1 -5 -13z"/>
<path d="M6623 5850 c12 -33 24 -55 26 -49 4 13 -27 97 -39 104 -5 3 1 -22 13
-55z"/>
<path d="M3805 6325 c-33 -19 -56 -35 -51 -35 10 0 116 60 116 66 0 6 -1 6
-65 -31z"/>
<path d="M6128 6323 c7 -3 16 -2 19 1 4 3 -2 6 -13 5 -11 0 -14 -3 -6 -6z"/>
<path d="M3544 5568 l-19 -23 23 19 c21 18 27 26 19 26 -2 0 -12 -10 -23 -22z"/>
<path d="M3654 5368 l-19 -23 23 19 c12 11 22 21 22 23 0 8 -8 2 -26 -19z"/>
<path d="M3599 5293 c-13 -16 -12 -17 4 -4 9 7 17 15 17 17 0 8 -8 3 -21 -13z"/>
<path d="M3150 5135 c-14 -8 -20 -14 -15 -14 6 0 21 6 35 14 14 8 21 14 15 14
-5 0 -21 -6 -35 -14z"/>
<path d="M3860 5109 c-7 -11 -10 -23 -7 -25 2 -2 9 7 15 21 14 30 7 33 -8 4z"/>
<path d="M3070 5105 c-19 -7 -28 -14 -20 -14 8 0 29 6 45 14 39 17 21 18 -25
0z"/>
<path d="M3410 4985 c-13 -14 -21 -27 -18 -31 3 -3 16 9 28 25 26 37 22 40
-10 6z"/>
<path d="M4086 4985 c-9 -26 -7 -32 5 -12 6 10 9 21 6 23 -2 3 -7 -2 -11 -11z"/>
<path d="M4066 4935 c-9 -26 -7 -32 5 -12 6 10 9 21 6 23 -2 3 -7 -2 -11 -11z"/>
<path d="M3205 4748 c-42 -51 -58 -73 -35 -48 58 62 123 140 117 140 -3 0 -40
-42 -82 -92z"/>
<path d="M3801 4434 c0 -11 3 -14 6 -6 3 7 2 16 -1 19 -3 4 -6 -2 -5 -13z"/>
<path d="M3880 3820 c0 -11 4 -20 9 -20 5 0 7 9 4 20 -3 11 -7 20 -9 20 -2 0
-4 -9 -4 -20z"/>
<path d="M3892 3770 c0 -14 2 -19 5 -12 2 6 2 18 0 25 -3 6 -5 1 -5 -13z"/>
<path d="M3913 3535 c3 -11 13 -55 22 -98 27 -127 138 -427 158 -427 5 0 7 6
4 13 -61 137 -123 307 -146 401 -17 65 -33 121 -37 125 -4 3 -4 -3 -1 -14z"/>
<path d="M3449 5813 c-13 -16 -12 -17 4 -4 9 7 17 15 17 17 0 8 -8 3 -21 -13z"/>
<path d="M6088 6023 c7 -3 16 -2 19 1 4 3 -2 6 -13 5 -11 0 -14 -3 -6 -6z"/>
<path d="M7705 5300 c17 -4 41 -8 55 -8 23 -1 23 0 5 8 -11 5 -36 8 -55 8
l-35 0 30 -8z"/>
<path d="M7608 5283 c7 -3 16 -2 19 1 4 3 -2 6 -13 5 -11 0 -14 -3 -6 -6z"/>
<path d="M7551 4794 c0 -11 3 -14 6 -6 3 7 2 16 -1 19 -3 4 -6 -2 -5 -13z"/>
<path d="M7560 4767 c0 -34 78 -120 119 -130 19 -5 16 0 -15 27 -22 18 -43 33
-48 34 -5 0 -20 17 -33 39 -12 21 -23 34 -23 30z"/>
<path d="M7675 4695 c40 -33 123 -72 171 -80 33 -5 30 -2 -22 18 -34 13 -88
38 -120 56 -52 28 -55 29 -29 6z"/>
<path d="M8182 4627 c7 -7 27 -20 43 -30 l30 -18 -33 30 c-18 17 -37 31 -43
31 -6 0 -5 -5 3 -13z"/>
<path d="M8130 4610 c8 -5 20 -10 25 -10 6 0 3 5 -5 10 -8 5 -19 10 -25 10 -5
0 -3 -5 5 -10z"/>
<path d="M8075 4590 c-3 -6 1 -7 9 -4 18 7 21 14 7 14 -6 0 -13 -4 -16 -10z"/>
<path d="M8175 4590 c3 -5 11 -10 16 -10 6 0 7 5 4 10 -3 6 -11 10 -16 10 -6
0 -7 -4 -4 -10z"/>
<path d="M8235 4564 c40 -23 17 -29 -31 -9 -20 8 -39 13 -41 11 -3 -2 5 -7 18
-11 16 -5 18 -9 8 -15 -8 -6 -2 -8 19 -8 18 1 38 -5 45 -12 9 -9 9 -11 0 -6
-6 3 -14 -2 -17 -12 -5 -13 -17 -19 -43 -20 -20 -1 -38 -4 -42 -7 -3 -4 25 -5
62 -4 64 2 87 12 50 22 -17 4 -17 5 0 6 14 1 16 7 11 29 -8 33 -13 38 -44 46
-22 6 -22 5 5 -10z"/>
<path d="M7537 4539 c7 -7 15 -10 18 -7 3 3 -2 9 -12 12 -14 6 -15 5 -6 -5z"/>
<path d="M8138 4523 c7 -3 16 -2 19 1 4 3 -2 6 -13 5 -11 0 -14 -3 -6 -6z"/>
<path d="M8170 4516 c0 -2 14 -6 30 -8 17 -3 30 -1 30 4 0 4 -13 8 -30 8 -16
0 -30 -2 -30 -4z"/>
<path d="M7983 4443 c9 -2 23 -2 30 0 6 3 -1 5 -18 5 -16 0 -22 -2 -12 -5z"/>
<path d="M7908 4413 c7 -3 16 -2 19 1 4 3 -2 6 -13 5 -11 0 -14 -3 -6 -6z"/>
<path d="M5820 5946 c0 -2 8 -10 18 -17 15 -13 16 -12 3 4 -13 16 -21 21 -21
13z"/>
<path d="M6195 5844 c-31 -11 -33 -13 -10 -9 17 2 41 7 55 10 16 3 10 -2 -15
-14 -31 -16 -34 -19 -12 -15 34 8 34 -5 1 -48 -23 -28 -21 -27 11 6 27 27 34
41 25 46 -9 6 -6 10 10 15 18 6 20 9 9 16 -17 11 -25 10 -74 -7z"/>
<path d="M6047 5823 c18 -2 50 -2 70 0 21 2 7 4 -32 4 -38 0 -55 -2 -38 -4z"/>
<path d="M5890 5810 c8 -5 20 -10 25 -10 6 0 3 5 -5 10 -8 5 -19 10 -25 10 -5
0 -3 -5 5 -10z"/>
<path d="M6205 5790 c-4 -6 -12 -7 -18 -4 -7 4 -9 4 -5 -1 4 -4 2 -15 -4 -24
-7 -9 0 -5 15 8 15 14 27 26 27 28 0 7 -9 3 -15 -7z"/>
<path d="M4855 5429 c-4 -6 -5 -12 -2 -15 2 -3 7 2 10 11 7 17 1 20 -8 4z"/>
<path d="M5355 5530 c3 -5 8 -10 11 -10 2 0 4 5 4 10 0 6 -5 10 -11 10 -5 0
-7 -4 -4 -10z"/>
<path d="M6585 5300 c-16 -16 -24 -30 -18 -30 10 0 34 24 47 48 12 20 2 14
-29 -18z"/>
<path d="M6490 5279 c-22 -18 -22 -19 -3 -10 12 6 25 16 28 21 9 15 3 12 -25
-11z"/>
<path d="M6634 5246 c-10 -8 -16 -17 -13 -20 3 -3 14 3 24 14 21 23 17 26 -11
6z"/>
<path d="M6325 5059 c-54 -22 -75 -36 -35 -24 37 12 107 44 95 44 -5 0 -32 -9
-60 -20z"/>
<path d="M6431 4664 c0 -11 3 -14 6 -6 3 7 2 16 -1 19 -3 4 -6 -2 -5 -13z"/>
<path d="M5546 5313 c-12 -25 -12 -30 -1 -30 7 0 16 11 20 25 9 36 -1 38 -19
5z"/>
<path d="M4092 3915 c0 -16 2 -22 5 -12 2 9 2 23 0 30 -3 6 -5 -1 -5 -18z"/>
<path d="M4450 3506 c0 -11 30 -66 36 -66 2 0 -3 15 -12 33 -19 36 -24 44 -24
33z"/>
<path d="M4221 3334 c0 -11 3 -14 6 -6 3 7 2 16 -1 19 -3 4 -6 -2 -5 -13z"/>
<path d="M4591 4055 c0 -22 4 -62 9 -90 7 -49 7 -49 9 25 0 41 -4 82 -9 90 -7
11 -10 4 -9 -25z"/>
<path d="M4573 3995 c0 -22 2 -30 4 -17 2 12 2 30 0 40 -3 9 -5 -1 -4 -23z"/>
<path d="M4612 3885 c0 -16 2 -22 5 -12 2 9 2 23 0 30 -3 6 -5 -1 -5 -18z"/>
<path d="M7523 4285 c0 -8 7 -11 15 -7 9 3 13 1 10 -4 -3 -5 9 -10 28 -11 19
-1 34 0 34 2 0 2 -19 10 -43 18 -35 12 -44 12 -44 2z"/>
<path d="M5062 3390 c0 -8 6 -31 13 -50 7 -19 13 -28 13 -20 0 8 -6 31 -13 50
-7 19 -13 28 -13 20z"/>
<path d="M5476 2907 c3 -10 9 -15 12 -12 3 3 0 11 -7 18 -10 9 -11 8 -5 -6z"/>
</g>
</svg>
