<svg width="280" height="67" viewBox="0 0 280 67" fill="none" xmlns="http://www.w3.org/2000/svg">
<path d="M43.9773 65.687H32.4607V63.335C30.9966 64.5366 29.4044 65.4117 27.682 65.9602C25.9575 66.5087 24.1284 66.7819 22.1969 66.7819C19.0104 66.7819 16.0865 66.1437 13.4207 64.8632C10.7571 63.5826 8.46064 61.8602 6.52697 59.6918C4.59331 57.5255 3.09291 55.0049 2.02149 52.1321C0.95008 49.2594 0.416504 46.2308 0.416504 43.0422C0.416504 39.6487 1.02904 36.5028 2.25626 33.6023C3.48347 30.7039 5.11619 28.1833 7.15444 26.0426C9.19055 23.8997 11.5148 22.2158 14.1272 20.9886C16.7396 19.7614 19.4287 19.1489 22.1969 19.1489C24.1284 19.1489 26.0109 19.4092 27.8379 19.93C29.6669 20.4529 31.2335 21.185 32.5375 22.1241V0.657364H43.9773V65.687ZM32.6165 53.5429V31.7603C32.0936 31.3954 31.4939 31.0432 30.8024 30.7039C30.1237 30.3645 29.4172 30.0785 28.6852 29.8416C27.9552 29.6068 27.2104 29.4233 26.4804 29.2931C25.7484 29.1629 25.0953 29.0989 24.5212 29.0989C22.6281 29.0989 20.9163 29.4233 19.3626 30.0785C17.8216 30.7295 16.4642 31.6707 15.316 32.8979C14.1656 34.1252 13.2649 35.5999 12.6374 37.3244C12.0099 39.0468 11.6983 40.9549 11.6983 43.0422C11.6983 45.0805 12.0099 46.948 12.6374 48.6447C13.2649 50.3436 14.14 51.8056 15.237 53.0328C16.334 54.26 17.6658 55.2141 19.2068 55.8928C20.7605 56.5715 22.4445 56.9108 24.2842 56.9108C27.2616 56.9108 30.0447 55.7882 32.6165 53.5429ZM100.152 42.9654C100.152 43.6953 100.113 44.453 100.034 45.2363C99.9575 46.0217 99.8658 46.8284 99.7612 47.6672H63.5637C63.982 48.9713 64.5689 50.2134 65.3266 51.3872C66.0843 52.5632 67.0127 53.5813 68.1076 54.4436C69.2067 55.3058 70.4446 55.9845 71.8298 56.4797C73.2149 56.977 74.7431 57.2245 76.4121 57.2245C78.4503 57.2245 80.4886 56.8724 82.5247 56.166C84.5608 55.4616 86.2597 54.5097 87.6171 53.3081L94.7457 60.4367C91.6125 62.7865 88.5434 64.4449 85.5404 65.4117C82.5375 66.3785 79.3638 66.8608 76.0216 66.8608C72.6259 66.8608 69.4543 66.2355 66.5026 64.9806C63.5509 63.7277 60.9919 62.0288 58.8234 59.8881C56.6571 57.7453 54.9476 55.2269 53.6926 52.3285C52.4398 49.4301 51.8123 46.3333 51.8123 43.0422C51.8123 39.7533 52.4398 36.6586 53.6926 33.7602C54.9476 30.8597 56.6699 28.3412 58.864 26.1984C61.058 24.0577 63.617 22.3588 66.541 21.106C69.4671 19.8532 72.6003 19.2257 75.9426 19.2257C79.1291 19.2257 82.1853 19.8126 85.1093 20.9886C88.0354 22.1625 90.6201 23.7952 92.8653 25.8846C95.1127 27.9741 96.8885 30.4691 98.1946 33.3675C99.5008 36.268 100.152 39.4651 100.152 42.9654ZM88.3214 38.5772C87.4336 35.7045 85.8542 33.3931 83.5833 31.6429C81.3103 29.895 78.7363 29.02 75.8636 29.02C73.0442 29.02 70.5108 29.895 68.2655 31.6429C66.0203 33.3931 64.4515 35.7045 63.5637 38.5772H88.3214ZM148.414 65.687H137.133V38.6562C137.133 37.0363 136.885 35.6127 136.388 34.3877C135.893 33.1583 135.212 32.1402 134.377 31.3313C133.543 30.5203 132.589 29.9206 131.505 29.5279C130.433 29.1373 129.31 28.941 128.162 28.941C126.438 28.941 124.728 29.2419 123.042 29.8416C121.373 30.4435 119.845 31.3954 118.485 32.7016V65.687H107.203V20.4017H118.485L118.564 23.7696C119.243 23.0909 120.08 22.4634 121.072 21.8893C122.065 21.3151 123.095 20.8328 124.167 20.4401C125.236 20.0474 126.333 19.7486 127.456 19.5394C128.581 19.3302 129.663 19.2257 130.708 19.2257C133.007 19.2257 135.212 19.5907 137.329 20.3227C139.444 21.0548 141.324 22.1774 142.97 23.6906C144.615 25.2059 145.934 27.1652 146.927 29.5684C147.919 31.9695 148.414 34.8166 148.414 38.1077V65.687ZM203.806 43.0422C203.806 46.4379 203.18 49.5859 201.925 52.4843C200.673 55.3827 198.95 57.8905 196.754 60.0055C194.562 62.1206 191.988 63.7939 189.036 65.019C186.087 66.2483 182.941 66.8608 179.596 66.8608C176.254 66.8608 173.121 66.2483 170.195 65.019C167.271 63.7939 164.71 62.1078 162.518 59.9671C160.324 57.8243 158.599 55.3058 157.346 52.4053C156.094 49.5069 155.466 46.3866 155.466 43.0422C155.466 39.7533 156.106 36.6586 157.385 33.7602C158.665 30.8597 160.403 28.3263 162.595 26.1578C164.789 23.9915 167.348 22.2948 170.274 21.0655C173.198 19.8404 176.307 19.2257 179.596 19.2257C182.941 19.2257 186.087 19.8404 189.036 21.0655C191.988 22.2948 194.562 23.966 196.754 26.081C198.95 28.1961 200.673 30.7167 201.925 33.6428C203.18 36.5668 203.806 39.7021 203.806 43.0422ZM192.524 43.0422C192.524 41.1107 192.184 39.3093 191.506 37.6382C190.827 35.967 189.914 34.5029 188.738 33.2501C187.562 31.9951 186.191 31.0176 184.638 30.3112C183.071 29.6068 181.413 29.2547 179.635 29.2547C177.859 29.2547 176.201 29.6068 174.634 30.3112C173.08 31.0176 171.71 31.9951 170.534 33.2501C169.36 34.5029 168.445 35.967 167.766 37.6382C167.087 39.3093 166.748 41.1107 166.748 43.0422C166.748 44.9759 167.087 46.7793 167.766 48.4483C168.445 50.1195 169.36 51.5836 170.534 52.8364C171.71 54.0893 173.08 55.071 174.634 55.7754C176.201 56.4797 177.859 56.834 179.635 56.834C181.413 56.834 183.071 56.4797 184.638 55.7754C186.191 55.071 187.562 54.0893 188.738 52.8364C189.914 51.5836 190.827 50.1195 191.506 48.4483C192.184 46.7793 192.524 44.9759 192.524 43.0422ZM236.085 64.6668C234.936 65.3988 233.605 65.9474 232.089 66.3124C230.576 66.6773 229.061 66.8608 227.545 66.8608C224.882 66.8608 222.634 66.5343 220.807 65.8812C218.978 65.2281 217.516 64.2229 216.419 62.8655C215.322 61.5059 214.526 59.7836 214.031 57.6941C213.534 55.6046 213.286 53.1502 213.286 50.3287V30.5075H207.331V25.4151C210.988 23.8998 213.952 21.6545 216.225 18.6771C218.496 15.6998 220.05 11.8347 220.886 7.08159H224.568V20.3227H236.006V30.5075H224.568V51.112C224.568 52.2624 224.711 53.2036 224.999 53.9335C225.285 54.6656 225.665 55.2396 226.135 55.658C226.604 56.0741 227.142 56.3623 227.742 56.5202C228.341 56.676 228.982 56.755 229.66 56.755C230.548 56.755 231.62 56.5971 232.872 56.2855C234.127 55.9717 235.197 55.4488 236.085 54.7189V64.6668ZM279.49 65.687H268.208V63.256C266.223 64.6156 264.121 65.5547 261.901 66.0776C259.679 66.6005 257.395 66.8608 255.046 66.8608C252.852 66.8608 250.867 66.5343 249.091 65.8812C247.315 65.2281 245.774 64.2891 244.468 63.0618C243.162 61.8346 242.157 60.3854 241.452 58.7143C240.746 57.041 240.394 55.1884 240.394 53.1502C240.394 50.5912 240.955 48.3566 242.078 46.4528C243.202 44.5447 244.731 42.9525 246.662 41.672C248.594 40.3935 250.854 39.4395 253.438 38.812C256.023 38.1867 258.806 37.873 261.781 37.873H268.285C268.285 35.2094 267.422 33.0943 265.7 31.5277C263.978 29.959 261.495 29.1758 258.258 29.1758C256.691 29.1758 255.071 29.4638 253.4 30.038C251.729 30.6121 250.056 31.6558 248.384 33.1711L241.726 26.4353C244.129 24.1345 246.91 22.3588 250.068 21.106C253.229 19.8532 256.482 19.2257 259.822 19.2257C262.957 19.2257 265.753 19.723 268.195 20.7154C270.634 21.7078 272.621 22.9863 274.122 24.5528C276.094 26.5377 277.479 28.7595 278.288 31.214C279.084 33.6684 279.49 36.8015 279.49 40.6155V65.687ZM268.208 54.403V46.0217H263.036C261.47 46.0217 259.995 46.1241 258.61 46.3333C257.225 46.5424 256.023 46.8946 255.005 47.3919C253.987 47.8892 253.178 48.5273 252.578 49.3106C251.977 50.0939 251.676 51.0351 251.676 52.1321C251.676 53.6987 252.29 54.9771 253.517 55.9717C254.745 56.9641 256.324 57.4593 258.258 57.4593C259.929 57.4593 261.587 57.1989 263.233 56.676C264.876 56.1531 266.537 55.3955 268.208 54.403Z" fill="white"/>
</svg>
